<svg id="Ebene_1" data-name="Ebene 1" xmlns="http://www.w3.org/2000/svg" viewBox="0 0 158 199.67"><defs><style>.cls-1{fill:none;stroke:#fff;stroke-linecap:round;stroke-linejoin:round;stroke-width:8px;}.cls-2{fill:#fff;}</style></defs><ellipse class="cls-1" cx="79" cy="24.83" rx="75" ry="20.83"/><path class="cls-1" d="M48.55,39.15v50c0,11.5,33.58,20.83,75,20.83s75-9.33,75-20.83v-50" transform="translate(-44.55 -14.32)"/><path class="cls-1" d="M48.55,110v29.17c0,11.5,33.58,20.83,75,20.83" transform="translate(-44.55 -14.32)"/><path class="cls-1" d="M48.55,160v29.17c0,11.5,33.58,20.83,75,20.83" transform="translate(-44.55 -14.32)"/><path class="cls-1" d="M198.55,110v29.17c0,11.5-33.58,20.83-75,20.83" transform="translate(-44.55 -14.32)"/><path class="cls-1" d="M198.55,160v29.17c0,11.5-33.58,20.83-75,20.83" transform="translate(-44.55 -14.32)"/><circle class="cls-2" cx="29" cy="66.5" r="4.17"/><circle class="cls-2" cx="29" cy="166.5" r="4.17"/><circle class="cls-2" cx="29" cy="116.5" r="4.17"/></svg>