<svg id="Ebene_1" data-name="Ebene 1" xmlns="http://www.w3.org/2000/svg" viewBox="0 0 215 236.02"><defs><style>.cls-1{fill:none;stroke:#fff;stroke-linecap:round;stroke-linejoin:round;stroke-width:15px;}</style></defs><path class="cls-1" d="M20,15.44V39.21a6,6,0,0,0,1.06,3.39L85.14,135a45.27,45.27,0,0,1,8.11,25.86v48.63l52.63,21V161a45.28,45.28,0,0,1,8.26-26.06l64.78-92.29A6,6,0,0,0,220,39.19V15.44a5.94,5.94,0,0,0-5.94-5.95H25.94A5.94,5.94,0,0,0,20,15.44Z" transform="translate(-12.5 -1.99)"/><line class="cls-1" x1="120.85" y1="197.03" x2="133.38" y2="197.03"/><line class="cls-1" x1="120.85" y1="175.98" x2="133.38" y2="175.98"/><line class="cls-1" x1="120.85" y1="154.93" x2="133.38" y2="154.93"/><line class="cls-1" x1="8.53" y1="37.22" x2="107.5" y2="37.22"/></svg>