<svg id="Ebene_1" data-name="Ebene 1" xmlns="http://www.w3.org/2000/svg" viewBox="0 0 206 188.61"><defs><style>.cls-1{fill:none;stroke:#60605f;stroke-linecap:round;stroke-linejoin:round;stroke-width:6px;}.cls-2{fill:#565656;}</style></defs><rect class="cls-1" x="3" y="3" width="200" height="156.52" rx="8.7"/><line class="cls-1" x1="50.83" y1="185.61" x2="155.17" y2="185.61"/><line class="cls-1" x1="72.56" y1="185.61" x2="72.57" y2="159.52"/><line class="cls-1" x1="133.43" y1="159.52" x2="133.43" y2="185.61"/><line class="cls-1" x1="3" y1="133.43" x2="203" y2="133.43"/><polyline class="cls-1" points="24.74 116.04 24.74 89.96 50.83 89.96 50.83 116.04"/><polyline class="cls-1" points="68.22 116.04 68.22 68.22 94.3 68.22 94.3 116.04"/><polyline class="cls-1" points="111.7 116.04 111.7 50.83 137.78 50.83 137.78 116.04"/><polyline class="cls-1" points="155.17 116.04 155.17 33.44 181.26 33.44 181.26 116.04"/><circle class="cls-2" cx="168.22" cy="20.39" r="4.35"/><circle class="cls-2" cx="37.78" cy="76.91" r="4.35"/><circle class="cls-2" cx="81.26" cy="55.17" r="4.35"/><circle class="cls-2" cx="124.74" cy="37.78" r="4.35"/><line class="cls-1" x1="24.74" y1="24.74" x2="50.83" y2="24.74"/><line class="cls-1" x1="24.74" y1="42.13" x2="50.83" y2="42.13"/></svg>