<svg id="Ebene_1" data-name="Ebene 1" xmlns="http://www.w3.org/2000/svg" viewBox="0 0 235 235"><defs><style>.cls-1{fill:none;stroke:#fff;stroke-linecap:round;stroke-linejoin:round;stroke-width:15px;}</style></defs><polyline class="cls-1" points="11.96 7.5 11.96 223.04 227.5 223.04"/><line class="cls-1" x1="16.42" y1="192.25" x2="7.5" y2="192.25"/><line class="cls-1" x1="16.42" y1="161.46" x2="7.5" y2="161.46"/><line class="cls-1" x1="16.42" y1="130.67" x2="7.5" y2="130.67"/><line class="cls-1" x1="16.42" y1="99.88" x2="7.5" y2="99.88"/><line class="cls-1" x1="16.42" y1="69.08" x2="7.5" y2="69.08"/><line class="cls-1" x1="16.42" y1="38.29" x2="7.5" y2="38.29"/><line class="cls-1" x1="42.74" y1="227.5" x2="42.74" y2="218.58"/><line class="cls-1" x1="73.53" y1="227.5" x2="73.53" y2="218.58"/><line class="cls-1" x1="104.33" y1="227.5" x2="104.33" y2="218.58"/><line class="cls-1" x1="135.12" y1="227.5" x2="135.12" y2="218.58"/><line class="cls-1" x1="165.91" y1="227.5" x2="165.91" y2="218.58"/><line class="cls-1" x1="196.7" y1="227.5" x2="196.7" y2="218.58"/><line class="cls-1" x1="16.42" y1="218.58" x2="7.5" y2="226.98"/><line class="cls-1" x1="58.15" y1="192.25" x2="58.15" y2="130.67"/><line class="cls-1" x1="119.73" y1="192.25" x2="119.73" y2="161.58"/><line class="cls-1" x1="181.31" y1="192.25" x2="181.31" y2="110.14"/><polyline class="cls-1" points="201.84 43.42 119.73 125.53 58.15 78.51 42.18 88.5"/><polyline class="cls-1" points="187.5 38.29 206.97 38.29 206.97 57.77"/></svg>