<svg xmlns="http://www.w3.org/2000/svg" viewBox="0 0 601 601"><defs><style>.cls-1,.cls-2,.cls-3,.cls-5{fill:none;}.cls-1{stroke:#e6e6e6;}.cls-1,.cls-8{stroke-miterlimit:10;}.cls-2,.cls-3,.cls-5{stroke:#f2f2f2;}.cls-2,.cls-3,.cls-4,.cls-5,.cls-6{stroke-linecap:round;stroke-linejoin:bevel;}.cls-2,.cls-6{stroke-width:6px;}.cls-3,.cls-4{stroke-width:3px;}.cls-4,.cls-6,.cls-8{fill:#c1272d;stroke:#ed1c24;}.cls-5{stroke-width:7px;}.cls-7,.cls-8{font-size:38px;font-family:MyriadPro-Regular, Myriad Pro;}.cls-7{fill:#f2f2f2;}.cls-9{letter-spacing:-0.01em;}.cls-10{letter-spacing:0em;}</style></defs><g id="Ebene_1" data-name="Ebene 1"><circle class="cls-1" cx="300.5" cy="300.5" r="300"/></g><g id="Ebene_2" data-name="Ebene 2"><line class="cls-2" x1="81" y1="488" x2="114" y2="460"/><line class="cls-3" x1="74.58" y1="480.21" x2="90" y2="468"/><line class="cls-3" x1="69.96" y1="474.24" x2="85.69" y2="462.44"/><line class="cls-3" x1="65.49" y1="468.16" x2="81.54" y2="456.77"/><line class="cls-3" x1="61.19" y1="461.96" x2="77.53" y2="451"/><line class="cls-3" x1="57.06" y1="455.65" x2="73.67" y2="445.12"/><line class="cls-3" x1="53.08" y1="449.23" x2="69.97" y2="439.14"/><line class="cls-3" x1="49.28" y1="442.72" x2="66.42" y2="433.07"/><line class="cls-3" x1="45.65" y1="436.1" x2="63.04" y2="426.91"/><line class="cls-3" x1="42.19" y1="429.4" x2="59.82" y2="420.66"/><line class="cls-3" x1="38.91" y1="422.6" x2="56.76" y2="414.33"/><line class="cls-3" x1="35.81" y1="415.72" x2="53.87" y2="407.92"/><line class="cls-3" x1="32.89" y1="408.77" x2="51.14" y2="401.43"/><line class="cls-3" x1="30.15" y1="401.74" x2="48.59" y2="394.88"/><line class="cls-3" x1="27.6" y1="394.64" x2="46.21" y2="388.27"/><line class="cls-3" x1="25.23" y1="387.47" x2="44" y2="381.59"/><line class="cls-3" x1="23.05" y1="380.25" x2="41.97" y2="374.86"/><line class="cls-3" x1="21.06" y1="372.97" x2="40.12" y2="368.08"/><line class="cls-3" x1="19.27" y1="365.64" x2="38.44" y2="361.25"/><line class="cls-3" x1="17.66" y1="358.27" x2="36.94" y2="354.38"/><line class="cls-3" x1="16.25" y1="350.86" x2="35.62" y2="347.47"/><line class="cls-3" x1="15.03" y1="343.41" x2="34.49" y2="340.54"/><line class="cls-3" x1="14" y1="335.94" x2="33.53" y2="333.57"/><line class="cls-3" x1="13.17" y1="328.44" x2="32.76" y2="326.58"/><line class="cls-3" x1="12.54" y1="320.92" x2="32.17" y2="319.58"/><line class="cls-3" x1="12.11" y1="313.39" x2="31.76" y2="312.56"/><line class="cls-3" x1="11.87" y1="305.84" x2="31.54" y2="305.53"/><line class="cls-3" x1="11.83" y1="298.3" x2="31.5" y2="298.5"/><line class="cls-3" x1="12.89" y1="275.69" x2="32.48" y2="277.43"/><line class="cls-3" x1="13.63" y1="268.19" x2="33.17" y2="270.44"/><line class="cls-3" x1="14.58" y1="260.7" x2="34.05" y2="263.46"/><line class="cls-3" x1="15.71" y1="253.24" x2="35.11" y2="256.51"/><line class="cls-3" x1="17.05" y1="245.81" x2="36.35" y2="249.59"/><line class="cls-3" x1="18.57" y1="238.43" x2="37.77" y2="242.7"/><line class="cls-3" x1="20.29" y1="231.08" x2="39.37" y2="235.86"/><line class="cls-3" x1="22.2" y1="223.78" x2="41.15" y2="229.05"/><line class="cls-3" x1="24.3" y1="216.53" x2="43.11" y2="222.3"/><line class="cls-3" x1="26.59" y1="209.34" x2="45.24" y2="215.6"/><line class="cls-3" x1="29.07" y1="202.22" x2="47.54" y2="208.96"/><line class="cls-3" x1="31.73" y1="195.16" x2="50.02" y2="202.38"/><line class="cls-3" x1="34.57" y1="188.17" x2="52.67" y2="195.87"/><line class="cls-3" x1="37.6" y1="181.26" x2="55.49" y2="189.42"/><line class="cls-3" x1="40.8" y1="174.43" x2="58.48" y2="183.06"/><line class="cls-3" x1="44.19" y1="167.68" x2="61.63" y2="176.77"/><line class="cls-3" x1="47.75" y1="161.03" x2="64.95" y2="170.57"/><line class="cls-3" x1="51.48" y1="154.47" x2="68.42" y2="164.46"/><line class="cls-3" x1="55.38" y1="148.01" x2="72.06" y2="158.44"/><line class="cls-3" x1="59.45" y1="141.66" x2="75.85" y2="152.52"/><line class="cls-3" x1="63.68" y1="135.41" x2="79.79" y2="146.7"/><line class="cls-3" x1="68.08" y1="129.28" x2="83.89" y2="140.99"/><line class="cls-3" x1="72.63" y1="123.26" x2="88.13" y2="135.38"/><line class="cls-3" x1="77.34" y1="117.37" x2="92.52" y2="129.89"/><line class="cls-3" x1="82.2" y1="111.6" x2="97.05" y2="124.51"/><line class="cls-3" x1="87.21" y1="105.96" x2="101.72" y2="119.25"/><line class="cls-3" x1="92.37" y1="100.45" x2="106.52" y2="114.12"/><line class="cls-3" x1="108.68" y1="84.76" x2="121.72" y2="99.5"/><line class="cls-3" x1="114.38" y1="79.82" x2="127.03" y2="94.89"/><line class="cls-3" x1="120.22" y1="75.04" x2="132.46" y2="90.43"/><line class="cls-3" x1="126.17" y1="70.4" x2="138.01" y2="86.11"/><line class="cls-3" x1="132.24" y1="65.92" x2="143.67" y2="81.94"/><line class="cls-3" x1="138.43" y1="61.61" x2="149.43" y2="77.91"/><line class="cls-3" x1="144.73" y1="57.45" x2="155.3" y2="74.04"/><line class="cls-3" x1="151.13" y1="53.46" x2="161.27" y2="70.32"/><line class="cls-3" x1="157.64" y1="49.65" x2="167.33" y2="66.76"/><line class="cls-3" x1="164.25" y1="46" x2="173.49" y2="63.36"/><line class="cls-3" x1="170.94" y1="42.52" x2="179.73" y2="60.12"/><line class="cls-3" x1="177.73" y1="39.23" x2="186.05" y2="57.05"/><line class="cls-3" x1="184.6" y1="36.11" x2="192.45" y2="54.14"/><line class="cls-3" x1="191.55" y1="33.17" x2="198.93" y2="51.4"/><line class="cls-3" x1="198.57" y1="30.41" x2="205.47" y2="48.83"/><line class="cls-3" x1="205.67" y1="27.84" x2="212.08" y2="46.44"/><line class="cls-3" x1="212.83" y1="25.46" x2="218.75" y2="44.21"/><line class="cls-3" x1="220.04" y1="23.26" x2="225.48" y2="42.16"/><line class="cls-3" x1="227.32" y1="21.25" x2="232.26" y2="40.29"/><line class="cls-3" x1="234.64" y1="19.43" x2="239.08" y2="38.6"/><line class="cls-3" x1="242.01" y1="17.81" x2="245.95" y2="37.08"/><line class="cls-3" x1="249.42" y1="16.38" x2="252.85" y2="35.74"/><line class="cls-3" x1="256.86" y1="15.14" x2="259.78" y2="34.59"/><line class="cls-3" x1="264.33" y1="14.09" x2="266.75" y2="33.62"/><line class="cls-3" x1="271.83" y1="13.25" x2="273.73" y2="32.82"/><line class="cls-3" x1="279.35" y1="12.6" x2="280.74" y2="32.22"/><line class="cls-3" x1="286.88" y1="12.14" x2="287.76" y2="31.79"/><line class="cls-3" x1="309.51" y1="11.96" x2="308.84" y2="31.62"/><line class="cls-3" x1="317.04" y1="12.29" x2="315.87" y2="31.93"/><line class="cls-3" x1="324.57" y1="12.82" x2="322.88" y2="32.42"/><line class="cls-3" x1="332.08" y1="13.55" x2="329.88" y2="33.1"/><line class="cls-3" x1="339.57" y1="14.48" x2="336.86" y2="33.96"/><line class="cls-3" x1="347.03" y1="15.59" x2="343.81" y2="35"/><line class="cls-3" x1="354.46" y1="16.91" x2="350.74" y2="36.22"/><line class="cls-3" x1="361.85" y1="18.41" x2="357.63" y2="37.63"/><line class="cls-3" x1="369.2" y1="20.11" x2="364.48" y2="39.21"/><line class="cls-3" x1="376.51" y1="22.01" x2="371.28" y2="40.97"/><line class="cls-3" x1="383.76" y1="24.09" x2="378.04" y2="42.91"/><line class="cls-3" x1="390.96" y1="26.36" x2="384.75" y2="45.02"/><line class="cls-3" x1="398.09" y1="28.82" x2="391.4" y2="47.31"/><line class="cls-3" x1="405.16" y1="31.46" x2="397.98" y2="49.77"/><line class="cls-3" x1="412.15" y1="34.29" x2="404.5" y2="52.41"/><line class="cls-3" x1="419.07" y1="37.29" x2="410.95" y2="55.21"/><line class="cls-3" x1="425.91" y1="40.48" x2="417.32" y2="58.18"/><line class="cls-3" x1="432.66" y1="43.85" x2="423.61" y2="61.32"/><line class="cls-3" x1="439.32" y1="47.39" x2="429.82" y2="64.61"/><line class="cls-3" x1="445.89" y1="51.11" x2="435.94" y2="68.07"/><line class="cls-3" x1="452.36" y1="54.99" x2="441.97" y2="71.69"/><line class="cls-3" x1="458.72" y1="59.04" x2="447.9" y2="75.47"/><line class="cls-3" x1="464.98" y1="63.26" x2="453.73" y2="79.4"/><line class="cls-3" x1="471.12" y1="67.64" x2="459.46" y2="83.48"/><line class="cls-3" x1="477.15" y1="72.18" x2="465.08" y2="87.71"/><line class="cls-3" x1="483.06" y1="76.87" x2="470.58" y2="92.08"/><line class="cls-3" x1="488.84" y1="81.72" x2="475.97" y2="96.6"/><line class="cls-3" x1="494.49" y1="86.72" x2="481.24" y2="101.25"/><line class="cls-3" x1="505.4" y1="97.15" x2="491.4" y2="110.97"/><line class="cls-3" x1="510.64" y1="102.57" x2="496.29" y2="116.02"/><line class="cls-3" x1="515.75" y1="108.13" x2="501.05" y2="121.2"/><line class="cls-3" x1="520.7" y1="113.82" x2="505.66" y2="126.5"/><line class="cls-3" x1="525.5" y1="119.64" x2="510.14" y2="131.93"/><line class="cls-3" x1="530.15" y1="125.58" x2="514.47" y2="137.46"/><line class="cls-3" x1="534.65" y1="131.64" x2="518.66" y2="143.11"/><line class="cls-3" x1="538.98" y1="137.82" x2="522.7" y2="148.87"/><line class="cls-3" x1="543.15" y1="144.11" x2="526.59" y2="154.72"/><line class="cls-3" x1="547.15" y1="150.5" x2="530.32" y2="160.68"/><line class="cls-3" x1="550.99" y1="157" x2="533.9" y2="166.74"/><line class="cls-3" x1="554.65" y1="163.6" x2="537.31" y2="172.88"/><line class="cls-3" x1="558.14" y1="170.28" x2="540.57" y2="179.11"/><line class="cls-3" x1="561.46" y1="177.06" x2="543.66" y2="185.43"/><line class="cls-3" x1="564.6" y1="183.92" x2="546.58" y2="191.82"/><line class="cls-3" x1="567.55" y1="190.87" x2="549.34" y2="198.29"/><line class="cls-3" x1="570.33" y1="197.88" x2="551.92" y2="204.83"/><line class="cls-3" x1="572.92" y1="204.97" x2="554.34" y2="211.43"/><line class="cls-3" x1="575.32" y1="212.12" x2="556.58" y2="218.1"/><line class="cls-3" x1="577.54" y1="219.33" x2="558.65" y2="224.82"/><line class="cls-3" x1="579.56" y1="226.6" x2="560.53" y2="231.59"/><line class="cls-3" x1="581.4" y1="233.92" x2="562.25" y2="238.41"/><line class="cls-4" x1="583.04" y1="241.28" x2="563.78" y2="245.27"/><line class="cls-4" x1="584.49" y1="248.69" x2="565.13" y2="252.17"/><line class="cls-4" x1="585.75" y1="256.13" x2="566.31" y2="259.1"/><line class="cls-4" x1="586.81" y1="263.6" x2="567.3" y2="266.07"/><line class="cls-4" x1="587.68" y1="271.09" x2="568.11" y2="273.05"/><line class="cls-4" x1="589.1" y1="293.68" x2="569.43" y2="294.1"/><line class="cls-4" x1="589.18" y1="301.22" x2="569.51" y2="301.13"/><line class="cls-4" x1="589.06" y1="308.77" x2="569.4" y2="308.16"/><line class="cls-4" x1="588.75" y1="316.31" x2="569.11" y2="315.18"/><line class="cls-4" x1="588.24" y1="323.83" x2="568.63" y2="322.2"/><line class="cls-4" x1="587.53" y1="331.35" x2="567.98" y2="329.2"/><line class="cls-4" x1="586.62" y1="338.84" x2="567.13" y2="336.18"/><line class="cls-4" x1="585.52" y1="346.3" x2="566.11" y2="343.13"/><line class="cls-4" x1="584.23" y1="353.74" x2="564.91" y2="350.06"/><line class="cls-4" x1="582.74" y1="361.13" x2="563.52" y2="356.95"/><line class="cls-4" x1="581.06" y1="368.49" x2="561.95" y2="363.81"/><line class="cls-4" x1="579.19" y1="375.8" x2="560.21" y2="370.62"/><line class="cls-4" x1="577.12" y1="383.05" x2="558.29" y2="377.38"/><line class="cls-4" x1="574.87" y1="390.26" x2="556.19" y2="384.09"/><line class="cls-4" x1="572.43" y1="397.4" x2="553.92" y2="390.75"/><line class="cls-4" x1="569.81" y1="404.47" x2="551.48" y2="397.34"/><line class="cls-4" x1="567" y1="411.47" x2="548.86" y2="403.87"/><line class="cls-4" x1="564.01" y1="418.4" x2="546.07" y2="410.32"/><line class="cls-4" x1="560.84" y1="425.24" x2="543.12" y2="416.7"/><line class="cls-4" x1="557.49" y1="432.01" x2="540" y2="423"/><line class="cls-4" x1="553.96" y1="438.68" x2="536.72" y2="429.22"/><line class="cls-4" x1="550.27" y1="445.25" x2="533.27" y2="435.35"/><line class="cls-4" x1="546.4" y1="451.73" x2="529.67" y2="441.39"/><line class="cls-4" x1="542.36" y1="458.11" x2="525.91" y2="447.33"/><line class="cls-4" x1="538.16" y1="464.37" x2="521.99" y2="453.17"/><line class="cls-4" x1="533.8" y1="470.53" x2="517.93" y2="458.9"/><line class="cls-4" x1="529.27" y1="476.57" x2="513.71" y2="464.53"/><line class="cls-2" x1="11.92" y1="286.39" x2="55.14" y2="288.67"/><line class="cls-2" x1="100.07" y1="92.35" x2="129.93" y2="123.68"/><line class="cls-2" x1="297.35" y1="11.73" x2="297.56" y2="55.01"/><line class="cls-5" x1="496.16" y1="88.51" x2="466.61" y2="120.13"/><line class="cls-6" x1="588.11" y1="281.77" x2="544.91" y2="284.35"/><line class="cls-6" x1="522.9" y1="483.71" x2="489.62" y2="456.04"/><text class="cls-7" transform="translate(104.76 451.15)">0</text><text class="cls-7" transform="translate(62.3 300.68)">5</text><text class="cls-7" transform="translate(133.67 156.76)">10</text><text class="cls-7" transform="translate(277.67 91.76)">15</text><text class="cls-7" transform="translate(427.67 156.76)">20</text><text class="cls-8" transform="translate(495.67 296.76)">25</text><text class="cls-8" transform="translate(462.67 446.76)">30</text><text class="cls-7" transform="translate(193.36 477.11)">D<tspan class="cls-9" x="25.31" y="0">r</tspan><tspan x="37.35" y="0">ehmome</tspan><tspan class="cls-10" x="180.77" y="0">n</tspan><tspan x="201.71" y="0">t</tspan><tspan x="78.85" y="45.6">x10</tspan></text><text x="0.5" y="0.5"/></g></svg>