<svg xmlns="http://www.w3.org/2000/svg" xmlns:xlink="http://www.w3.org/1999/xlink" viewBox="0 0 675.47 600">
  <defs>
    <style>
      .cls-1 {
        mask: url(#mask);
      }

      .cls-2, .cls-9 {
        mix-blend-mode: multiply;
      }

      .cls-2 {
        fill: url(#Super_Soft_Black_Vignette_3);
      }

      .cls-3 {
        isolation: isolate;
      }

      .cls-4 {
        fill: url(#Unbenannter_Verlauf_36);
      }

      .cls-5 {
        fill: url(#Unbenannter_Verlauf_38);
      }

      .cls-6 {
        fill: url(#Unbenannter_Verlauf_19);
      }

      .cls-10, .cls-11, .cls-13, .cls-7 {
        fill: none;
      }

      .cls-7 {
        stroke: #e6e6e6;
      }

      .cls-16, .cls-20, .cls-7 {
        stroke-miterlimit: 10;
      }

      .cls-8 {
        mask: url(#mask-2);
      }

      .cls-9 {
        fill: #212121;
      }

      .cls-10, .cls-11, .cls-13 {
        stroke: #f2f2f2;
      }

      .cls-10, .cls-11, .cls-12, .cls-13, .cls-14 {
        stroke-linecap: round;
        stroke-linejoin: bevel;
      }

      .cls-10, .cls-14 {
        stroke-width: 6px;
      }

      .cls-11, .cls-12 {
        stroke-width: 3px;
      }

      .cls-12, .cls-14, .cls-16 {
        fill: #c1272d;
        stroke: #ed1c24;
      }

      .cls-13 {
        stroke-width: 7px;
      }

      .cls-15, .cls-16 {
        font-size: 36.77px;
      }

      .cls-15, .cls-17, .cls-21 {
        fill: #f2f2f2;
      }

      .cls-15, .cls-16, .cls-21 {
        font-family: MyriadPro-Regular, Myriad Pro;
      }

      .cls-18 {
        fill: url(#Unbenannter_Verlauf_5);
      }

      .cls-19 {
        fill: url(#Unbenannter_Verlauf_6);
      }

      .cls-20 {
        fill: #303030;
        stroke: #555;
      }

      .cls-21 {
        font-size: 124.84px;
      }

      .cls-22 {
        filter: url(#luminosity-noclip-2);
      }

      .cls-23 {
        filter: url(#luminosity-noclip);
      }
    </style>
    <filter id="luminosity-noclip" x="15.48" y="-8492" width="570.97" height="32766" filterUnits="userSpaceOnUse" color-interpolation-filters="sRGB">
      <feFlood flood-color="#fff" result="bg"/>
      <feBlend in="SourceGraphic" in2="bg"/>
    </filter>
    <mask id="mask" x="15.48" y="-8492" width="570.97" height="32766" maskUnits="userSpaceOnUse">
      <g class="cls-23"/>
    </mask>
    <radialGradient id="Super_Soft_Black_Vignette_3" data-name="Super Soft Black Vignette 3" cx="300.97" cy="300" r="285.48" gradientUnits="userSpaceOnUse">
      <stop offset="0.57"/>
      <stop offset="0.6" stop-color="#0f0f0f"/>
      <stop offset="0.66" stop-color="#373737"/>
      <stop offset="0.74" stop-color="#767676"/>
      <stop offset="0.8" stop-color="#a6a6a6"/>
      <stop offset="0.8" stop-color="#aaa"/>
      <stop offset="0.86" stop-color="#c9c9c9"/>
      <stop offset="0.91" stop-color="#e0e0e0"/>
      <stop offset="0.96" stop-color="#ededed"/>
      <stop offset="1" stop-color="#f2f2f2"/>
    </radialGradient>
    <radialGradient id="Unbenannter_Verlauf_36" data-name="Unbenannter Verlauf 36" cx="300" cy="300" r="300" gradientUnits="userSpaceOnUse">
      <stop offset="0.98" stop-color="#4d4d4d" stop-opacity="0.5"/>
      <stop offset="1"/>
    </radialGradient>
    <radialGradient id="Unbenannter_Verlauf_38" data-name="Unbenannter Verlauf 38" cx="300" cy="300" r="295.16" gradientUnits="userSpaceOnUse">
      <stop offset="0.98"/>
      <stop offset="0.99" stop-color="#555" stop-opacity="0.34"/>
      <stop offset="0.99" stop-color="gray" stop-opacity="0"/>
    </radialGradient>
    <radialGradient id="Unbenannter_Verlauf_19" data-name="Unbenannter Verlauf 19" cx="301.94" cy="298.06" r="217.74" gradientUnits="userSpaceOnUse">
      <stop offset="0.68" stop-color="#007578"/>
      <stop offset="1" stop-color="#303030" stop-opacity="0"/>
    </radialGradient>
    <filter id="luminosity-noclip-2" x="15.48" y="14.52" width="570.97" height="570.97" filterUnits="userSpaceOnUse" color-interpolation-filters="sRGB">
      <feFlood flood-color="#fff" result="bg"/>
      <feBlend in="SourceGraphic" in2="bg"/>
    </filter>
    <mask id="mask-2" x="15.48" y="14.52" width="570.97" height="570.97" maskUnits="userSpaceOnUse">
      <g class="cls-22">
        <g transform="translate(0 0)">
          <g class="cls-1">
            <circle class="cls-2" cx="300.97" cy="300" r="285.48"/>
          </g>
        </g>
      </g>
    </mask>
    <linearGradient id="Unbenannter_Verlauf_5" data-name="Unbenannter Verlauf 5" x1="106.33" y1="406.3" x2="132.91" y2="406.3" gradientTransform="translate(374.93 80.57) rotate(50)" gradientUnits="userSpaceOnUse">
      <stop offset="0.24" stop-color="#6f6f6e"/>
      <stop offset="0.61" stop-color="#aeaead"/>
      <stop offset="1" stop-color="#ececec"/>
    </linearGradient>
    <linearGradient id="Unbenannter_Verlauf_6" data-name="Unbenannter Verlauf 6" x1="106.98" y1="400.22" x2="132.19" y2="400.22" gradientTransform="translate(374.93 80.57) rotate(50)" gradientUnits="userSpaceOnUse">
      <stop offset="0.24" stop-color="#005d83"/>
      <stop offset="0.33" stop-color="#066085"/>
      <stop offset="0.44" stop-color="#18698a"/>
      <stop offset="0.58" stop-color="#347792"/>
      <stop offset="0.73" stop-color="#5c8b9e"/>
      <stop offset="0.88" stop-color="#8ea4ad"/>
      <stop offset="1" stop-color="#b9b9b9"/>
    </linearGradient>
  </defs>
  <g class="cls-3">
    <g id="Ebene_1" data-name="Ebene 1">
      <g id="Ebene_3" data-name="Ebene 3">
        <circle class="cls-4" cx="300" cy="300" r="300"/>
        <circle class="cls-5" cx="300" cy="300" r="295.16"/>
      </g>
      <circle class="cls-6" cx="301.94" cy="298.06" r="217.74"/>
      <circle class="cls-7" cx="300" cy="300" r="285.48"/>
      <g id="Ebene_2" data-name="Ebene 2">
        <g class="cls-8">
          <circle class="cls-9" cx="300.97" cy="300" r="285.48"/>
        </g>
        <line class="cls-10" x1="87.58" y1="481.45" x2="119.52" y2="454.35"/>
        <line class="cls-11" x1="81.36" y1="473.91" x2="96.29" y2="462.1"/>
        <line class="cls-11" x1="76.89" y1="468.14" x2="92.12" y2="456.72"/>
        <line class="cls-11" x1="72.58" y1="462.25" x2="88.1" y2="451.23"/>
        <line class="cls-11" x1="68.41" y1="456.25" x2="84.22" y2="445.64"/>
        <line class="cls-11" x1="64.41" y1="450.14" x2="80.49" y2="439.95"/>
        <line class="cls-11" x1="60.56" y1="443.94" x2="76.9" y2="434.17"/>
        <line class="cls-11" x1="56.89" y1="437.63" x2="73.47" y2="428.29"/>
        <line class="cls-11" x1="53.37" y1="431.23" x2="70.2" y2="422.33"/>
        <line class="cls-11" x1="50.03" y1="424.74" x2="67.08" y2="416.28"/>
        <line class="cls-11" x1="46.85" y1="418.16" x2="64.12" y2="410.15"/>
        <line class="cls-11" x1="43.85" y1="411.51" x2="61.32" y2="403.95"/>
        <line class="cls-11" x1="41.02" y1="404.77" x2="58.69" y2="397.68"/>
        <line class="cls-11" x1="38.37" y1="397.97" x2="56.22" y2="391.34"/>
        <line class="cls-11" x1="35.9" y1="391.1" x2="53.91" y2="384.94"/>
        <line class="cls-11" x1="33.61" y1="384.17" x2="51.78" y2="378.48"/>
        <line class="cls-11" x1="31.5" y1="377.18" x2="49.81" y2="371.96"/>
        <line class="cls-11" x1="29.58" y1="370.13" x2="48.02" y2="365.4"/>
        <line class="cls-11" x1="27.84" y1="363.04" x2="46.39" y2="358.79"/>
        <line class="cls-11" x1="26.28" y1="355.91" x2="44.94" y2="352.14"/>
        <line class="cls-11" x1="24.92" y1="348.73" x2="43.67" y2="345.46"/>
        <line class="cls-11" x1="23.74" y1="341.53" x2="42.57" y2="338.74"/>
        <line class="cls-11" x1="22.74" y1="334.29" x2="41.64" y2="332"/>
        <line class="cls-11" x1="21.94" y1="327.04" x2="40.89" y2="325.24"/>
        <line class="cls-11" x1="21.33" y1="319.76" x2="40.32" y2="318.46"/>
        <line class="cls-11" x1="20.91" y1="312.47" x2="39.93" y2="311.67"/>
        <line class="cls-11" x1="20.68" y1="305.17" x2="39.71" y2="304.87"/>
        <line class="cls-11" x1="20.64" y1="297.87" x2="39.67" y2="298.06"/>
        <line class="cls-11" x1="21.66" y1="275.99" x2="40.63" y2="277.68"/>
        <line class="cls-11" x1="22.39" y1="268.73" x2="41.3" y2="270.91"/>
        <line class="cls-11" x1="23.3" y1="261.48" x2="42.15" y2="264.15"/>
        <line class="cls-11" x1="24.4" y1="254.27" x2="43.17" y2="257.43"/>
        <line class="cls-11" x1="25.69" y1="247.08" x2="44.37" y2="250.73"/>
        <line class="cls-11" x1="27.17" y1="239.93" x2="45.75" y2="244.07"/>
        <line class="cls-11" x1="28.83" y1="232.82" x2="47.3" y2="237.44"/>
        <line class="cls-11" x1="30.68" y1="225.75" x2="49.02" y2="230.86"/>
        <line class="cls-11" x1="32.71" y1="218.74" x2="50.91" y2="224.32"/>
        <line class="cls-11" x1="34.93" y1="211.78" x2="52.97" y2="217.84"/>
        <line class="cls-11" x1="37.32" y1="204.89" x2="55.2" y2="211.41"/>
        <line class="cls-11" x1="39.9" y1="198.05" x2="57.6" y2="205.04"/>
        <line class="cls-11" x1="42.65" y1="191.29" x2="60.17" y2="198.74"/>
        <line class="cls-11" x1="45.58" y1="184.6" x2="62.9" y2="192.51"/>
        <line class="cls-11" x1="48.68" y1="177.99" x2="65.79" y2="186.35"/>
        <line class="cls-11" x1="51.96" y1="171.47" x2="68.84" y2="180.27"/>
        <line class="cls-11" x1="55.4" y1="165.03" x2="72.04" y2="174.27"/>
        <line class="cls-11" x1="59.01" y1="158.68" x2="75.41" y2="168.35"/>
        <line class="cls-11" x1="62.79" y1="152.43" x2="78.93" y2="162.53"/>
        <line class="cls-11" x1="66.72" y1="146.28" x2="82.59" y2="156.8"/>
        <line class="cls-11" x1="70.82" y1="140.24" x2="86.41" y2="151.16"/>
        <line class="cls-11" x1="75.07" y1="134.3" x2="90.37" y2="145.63"/>
        <line class="cls-11" x1="79.48" y1="128.48" x2="94.48" y2="140.21"/>
        <line class="cls-11" x1="84.04" y1="122.78" x2="98.73" y2="134.89"/>
        <line class="cls-11" x1="88.75" y1="117.19" x2="103.11" y2="129.69"/>
        <line class="cls-11" x1="93.59" y1="111.74" x2="107.63" y2="124.6"/>
        <line class="cls-11" x1="98.59" y1="106.41" x2="112.28" y2="119.63"/>
        <line class="cls-11" x1="114.37" y1="91.22" x2="126.98" y2="105.48"/>
        <line class="cls-11" x1="119.89" y1="86.44" x2="132.13" y2="101.02"/>
        <line class="cls-11" x1="125.53" y1="81.81" x2="137.38" y2="96.71"/>
        <line class="cls-11" x1="131.29" y1="77.32" x2="142.75" y2="92.52"/>
        <line class="cls-11" x1="137.17" y1="72.99" x2="148.23" y2="88.49"/>
        <line class="cls-11" x1="143.16" y1="68.81" x2="153.81" y2="84.59"/>
        <line class="cls-11" x1="149.25" y1="64.79" x2="159.49" y2="80.84"/>
        <line class="cls-11" x1="155.45" y1="60.93" x2="165.26" y2="77.25"/>
        <line class="cls-11" x1="161.75" y1="57.24" x2="171.13" y2="73.8"/>
        <line class="cls-11" x1="168.14" y1="53.71" x2="177.09" y2="70.51"/>
        <line class="cls-11" x1="174.62" y1="50.35" x2="183.12" y2="67.38"/>
        <line class="cls-11" x1="181.19" y1="47.15" x2="189.24" y2="64.4"/>
        <line class="cls-11" x1="187.84" y1="44.14" x2="195.44" y2="61.59"/>
        <line class="cls-11" x1="194.56" y1="41.29" x2="201.71" y2="58.94"/>
        <line class="cls-11" x1="201.36" y1="38.62" x2="208.04" y2="56.45"/>
        <line class="cls-11" x1="208.23" y1="36.14" x2="214.44" y2="54.13"/>
        <line class="cls-11" x1="215.15" y1="33.83" x2="220.89" y2="51.98"/>
        <line class="cls-11" x1="222.14" y1="31.7" x2="227.4" y2="50"/>
        <line class="cls-11" x1="229.18" y1="29.76" x2="233.96" y2="48.18"/>
        <line class="cls-11" x1="236.26" y1="28" x2="240.56" y2="46.54"/>
        <line class="cls-11" x1="243.39" y1="26.43" x2="247.21" y2="45.08"/>
        <line class="cls-11" x1="250.56" y1="25.04" x2="253.89" y2="43.78"/>
        <line class="cls-11" x1="257.77" y1="23.84" x2="260.6" y2="42.67"/>
        <line class="cls-11" x1="265" y1="22.83" x2="267.34" y2="41.72"/>
        <line class="cls-11" x1="272.25" y1="22.01" x2="274.1" y2="40.96"/>
        <line class="cls-11" x1="279.53" y1="21.38" x2="280.88" y2="40.37"/>
        <line class="cls-11" x1="286.82" y1="20.94" x2="287.67" y2="39.96"/>
        <line class="cls-11" x1="308.72" y1="20.77" x2="308.08" y2="39.79"/>
        <line class="cls-11" x1="316.01" y1="21.09" x2="314.87" y2="40.09"/>
        <line class="cls-11" x1="323.29" y1="21.6" x2="321.66" y2="40.57"/>
        <line class="cls-11" x1="330.56" y1="22.31" x2="328.43" y2="41.22"/>
        <line class="cls-11" x1="337.81" y1="23.2" x2="335.19" y2="42.06"/>
        <line class="cls-11" x1="345.03" y1="24.28" x2="341.92" y2="43.06"/>
        <line class="cls-11" x1="352.22" y1="25.56" x2="348.62" y2="44.25"/>
        <line class="cls-11" x1="359.37" y1="27.01" x2="355.28" y2="45.61"/>
        <line class="cls-11" x1="366.49" y1="28.66" x2="361.91" y2="47.14"/>
        <line class="cls-11" x1="373.56" y1="30.49" x2="368.5" y2="48.84"/>
        <line class="cls-11" x1="380.58" y1="32.5" x2="375.04" y2="50.72"/>
        <line class="cls-11" x1="387.54" y1="34.7" x2="381.53" y2="52.76"/>
        <line class="cls-11" x1="394.44" y1="37.08" x2="387.96" y2="54.98"/>
        <line class="cls-11" x1="401.28" y1="39.64" x2="394.34" y2="57.36"/>
        <line class="cls-11" x1="408.05" y1="42.37" x2="400.65" y2="59.91"/>
        <line class="cls-11" x1="414.75" y1="45.28" x2="406.89" y2="62.62"/>
        <line class="cls-11" x1="421.36" y1="48.37" x2="413.05" y2="65.5"/>
        <line class="cls-11" x1="427.9" y1="51.63" x2="419.14" y2="68.53"/>
        <line class="cls-11" x1="434.35" y1="55.06" x2="425.15" y2="71.72"/>
        <line class="cls-11" x1="440.7" y1="58.65" x2="431.07" y2="75.07"/>
        <line class="cls-11" x1="446.96" y1="62.41" x2="436.91" y2="78.57"/>
        <line class="cls-11" x1="453.12" y1="66.33" x2="442.65" y2="82.23"/>
        <line class="cls-11" x1="459.18" y1="70.41" x2="448.29" y2="86.03"/>
        <line class="cls-11" x1="465.12" y1="74.65" x2="453.83" y2="89.98"/>
        <line class="cls-11" x1="470.95" y1="79.04" x2="459.27" y2="94.07"/>
        <line class="cls-11" x1="476.67" y1="83.59" x2="464.6" y2="98.3"/>
        <line class="cls-11" x1="482.27" y1="88.28" x2="469.81" y2="102.67"/>
        <line class="cls-11" x1="487.74" y1="93.11" x2="474.91" y2="107.18"/>
        <line class="cls-11" x1="498.29" y1="103.21" x2="484.75" y2="116.58"/>
        <line class="cls-11" x1="503.37" y1="108.46" x2="489.48" y2="121.47"/>
        <line class="cls-11" x1="508.3" y1="113.84" x2="494.08" y2="126.49"/>
        <line class="cls-11" x1="513.1" y1="119.34" x2="498.55" y2="131.62"/>
        <line class="cls-11" x1="517.74" y1="124.97" x2="502.88" y2="136.86"/>
        <line class="cls-11" x1="522.24" y1="130.72" x2="507.07" y2="142.22"/>
        <line class="cls-11" x1="526.59" y1="136.59" x2="511.13" y2="147.69"/>
        <line class="cls-11" x1="530.79" y1="142.57" x2="515.03" y2="153.26"/>
        <line class="cls-11" x1="534.82" y1="148.65" x2="518.8" y2="158.93"/>
        <line class="cls-11" x1="538.7" y1="154.84" x2="522.41" y2="164.69"/>
        <line class="cls-11" x1="542.41" y1="161.13" x2="525.87" y2="170.55"/>
        <line class="cls-11" x1="545.95" y1="167.51" x2="529.17" y2="176.5"/>
        <line class="cls-11" x1="549.33" y1="173.99" x2="532.32" y2="182.53"/>
        <line class="cls-11" x1="552.54" y1="180.54" x2="535.31" y2="188.64"/>
        <line class="cls-11" x1="555.58" y1="187.19" x2="538.14" y2="194.83"/>
        <line class="cls-11" x1="558.44" y1="193.9" x2="540.81" y2="201.09"/>
        <line class="cls-11" x1="561.12" y1="200.69" x2="543.31" y2="207.42"/>
        <line class="cls-11" x1="563.63" y1="207.55" x2="545.65" y2="213.81"/>
        <line class="cls-11" x1="565.95" y1="214.47" x2="547.82" y2="220.26"/>
        <line class="cls-11" x1="568.1" y1="221.45" x2="549.82" y2="226.76"/>
        <line class="cls-11" x1="570.06" y1="228.49" x2="551.65" y2="233.31"/>
        <line class="cls-11" x1="571.84" y1="235.57" x2="553.3" y2="239.91"/>
        <line class="cls-12" x1="573.43" y1="242.69" x2="554.79" y2="246.55"/>
        <line class="cls-12" x1="574.83" y1="249.86" x2="556.1" y2="253.23"/>
        <line class="cls-12" x1="576.05" y1="257.06" x2="557.23" y2="259.94"/>
        <line class="cls-12" x1="577.08" y1="264.29" x2="558.19" y2="266.68"/>
        <line class="cls-12" x1="577.92" y1="271.54" x2="558.97" y2="273.44"/>
        <line class="cls-12" x1="579.29" y1="293.4" x2="560.26" y2="293.8"/>
        <line class="cls-12" x1="579.37" y1="300.7" x2="560.33" y2="300.61"/>
        <line class="cls-12" x1="579.25" y1="308" x2="560.23" y2="307.41"/>
        <line class="cls-12" x1="578.95" y1="315.3" x2="559.94" y2="314.21"/>
        <line class="cls-12" x1="578.45" y1="322.58" x2="559.48" y2="321"/>
        <line class="cls-12" x1="577.77" y1="329.85" x2="558.85" y2="327.77"/>
        <line class="cls-12" x1="576.89" y1="337.1" x2="558.03" y2="334.53"/>
        <line class="cls-12" x1="575.83" y1="344.32" x2="557.04" y2="341.26"/>
        <line class="cls-12" x1="574.58" y1="351.52" x2="555.88" y2="347.96"/>
        <line class="cls-12" x1="573.14" y1="358.68" x2="554.54" y2="354.63"/>
        <line class="cls-12" x1="571.51" y1="365.79" x2="553.02" y2="361.27"/>
        <line class="cls-12" x1="569.7" y1="372.87" x2="551.33" y2="367.86"/>
        <line class="cls-12" x1="567.7" y1="379.89" x2="549.47" y2="374.4"/>
        <line class="cls-12" x1="565.52" y1="386.86" x2="547.44" y2="380.9"/>
        <line class="cls-12" x1="563.16" y1="393.77" x2="545.25" y2="387.34"/>
        <line class="cls-12" x1="560.62" y1="400.62" x2="542.88" y2="393.72"/>
        <line class="cls-12" x1="557.9" y1="407.39" x2="540.35" y2="400.03"/>
        <line class="cls-12" x1="555.01" y1="414.1" x2="537.65" y2="406.28"/>
        <line class="cls-12" x1="551.94" y1="420.72" x2="534.79" y2="412.45"/>
        <line class="cls-12" x1="548.7" y1="427.26" x2="531.77" y2="418.55"/>
        <line class="cls-12" x1="545.29" y1="433.72" x2="528.6" y2="424.57"/>
        <line class="cls-12" x1="541.71" y1="440.08" x2="525.26" y2="430.5"/>
        <line class="cls-12" x1="537.96" y1="446.35" x2="521.77" y2="436.34"/>
        <line class="cls-12" x1="534.06" y1="452.52" x2="518.14" y2="442.09"/>
        <line class="cls-12" x1="529.99" y1="458.59" x2="514.35" y2="447.74"/>
        <line class="cls-12" x1="525.77" y1="464.54" x2="510.41" y2="453.29"/>
        <line class="cls-12" x1="521.39" y1="470.39" x2="506.34" y2="458.74"/>
        <line class="cls-10" x1="20.73" y1="286.34" x2="62.56" y2="288.56"/>
        <line class="cls-10" x1="106.03" y1="98.57" x2="134.93" y2="128.88"/>
        <line class="cls-10" x1="296.95" y1="20.55" x2="297.16" y2="62.43"/>
        <line class="cls-13" x1="489.34" y1="94.85" x2="460.75" y2="125.45"/>
        <line class="cls-14" x1="578.34" y1="281.88" x2="536.53" y2="284.37"/>
        <line class="cls-14" x1="515.22" y1="477.3" x2="483.02" y2="450.53"/>
        <text class="cls-15" transform="translate(110.7 445.11)">0</text>
        <text class="cls-15" transform="translate(69.48 300.18)">5</text>
        <text class="cls-15" transform="translate(138.55 160.9)">10</text>
        <text class="cls-15" transform="translate(277.9 98)">15</text>
        <text class="cls-15" transform="translate(423.06 160.9)">20</text>
        <text class="cls-16" transform="translate(488.87 296.39)">25</text>
        <text class="cls-16" transform="translate(456.93 441.55)">30</text>
        <text/>        <g>
          <path class="cls-17" d="M196.67,483.25H205q13.41,0,13.41,13,0,13.31-13.41,13.3h-8.35Zm3.48,23.2H205q5.73,0,7.81-2.67t2.08-7.51q0-4.72-2.07-7.31c-1.38-1.72-4-2.59-7.82-2.59h-4.8Z" transform="translate(0 0)"/>
          <path class="cls-17" d="M232.67,493.61a7.65,7.65,0,0,0-2.06-.22,5.33,5.33,0,0,0-4.44,2.72v13.46h-3.39V490.52h3.39v2.66q2.15-3.09,5-3.09a9.57,9.57,0,0,1,1.54.14Z" transform="translate(0 0)"/>
          <path class="cls-17" d="M243.12,510a9,9,0,0,1-6.75-2.63,10.09,10.09,0,0,1-2.55-7.33,10.33,10.33,0,0,1,2.47-7.32,8.41,8.41,0,0,1,6.46-2.65,8.53,8.53,0,0,1,6.51,2.6c1.62,1.74,2.43,4.19,2.43,7.37v.8H237.34a7.42,7.42,0,0,0,1.82,4.91,5.44,5.44,0,0,0,4,1.59,5.89,5.89,0,0,0,3.21-.9,3.08,3.08,0,0,0,1.5-2.58h3.5a6.28,6.28,0,0,1-2.67,4.54A9.34,9.34,0,0,1,243.12,510Zm5-11.81a7,7,0,0,0-1.85-4.12,5.2,5.2,0,0,0-7,0,6.75,6.75,0,0,0-1.85,4.12Z" transform="translate(0 0)"/>
          <path class="cls-17" d="M258.87,493a7.48,7.48,0,0,1,5.69-2.86q6.45,0,6.45,7v12.46h-3.39V497.25a5.29,5.29,0,0,0-.84-3.35,3.32,3.32,0,0,0-2.74-1q-2.58,0-5.17,3.06v13.64h-3.39V483.25h3.39Z" transform="translate(0 0)"/>
          <path class="cls-17" d="M301.68,509.57h-3.39V497.25a6.17,6.17,0,0,0-.69-3.37,2.55,2.55,0,0,0-2.28-1q-2.46,0-4.83,3.06v13.64h-3.37V497.25a6.17,6.17,0,0,0-.69-3.37,2.56,2.56,0,0,0-2.29-1q-2.46,0-4.82,3.06v13.64h-3.39V490.52h3.39V493a6.94,6.94,0,0,1,5.34-2.86c2.79,0,4.56,1.15,5.33,3.45a10.68,10.68,0,0,1,3.23-2.85,6.34,6.34,0,0,1,2.61-.6q5.85,0,5.85,7Z" transform="translate(0 0)"/>
          <path class="cls-17" d="M314.28,490.09a8.5,8.5,0,0,1,6.51,2.6c1.63,1.74,2.44,4.19,2.44,7.37s-.81,5.61-2.44,7.35a9.4,9.4,0,0,1-13,0q-2.43-2.61-2.43-7.35c0-3.18.81-5.63,2.43-7.37A8.5,8.5,0,0,1,314.28,490.09Zm0,17.27a4.85,4.85,0,0,0,3.94-1.84,10.68,10.68,0,0,0,0-10.95,5.13,5.13,0,0,0-7.87,0,10.68,10.68,0,0,0,0,10.95A4.84,4.84,0,0,0,314.28,507.36Z" transform="translate(0 0)"/>
          <path class="cls-17" d="M352.76,509.57h-3.39V497.25a6.27,6.27,0,0,0-.68-3.37,2.57,2.57,0,0,0-2.28-1q-2.46,0-4.83,3.06v13.64H338.2V497.25a6.27,6.27,0,0,0-.68-3.37,2.58,2.58,0,0,0-2.3-1q-2.46,0-4.81,3.06v13.64H327V490.52h3.39V493a6.91,6.91,0,0,1,5.33-2.86q4.18,0,5.34,3.45a10.45,10.45,0,0,1,3.23-2.85,6.26,6.26,0,0,1,2.6-.6q5.85,0,5.85,7Z" transform="translate(0 0)"/>
          <path class="cls-17" d="M365.75,510a8.93,8.93,0,0,1-6.75-2.63c-1.71-1.75-2.55-4.2-2.55-7.33a10.32,10.32,0,0,1,2.46-7.32,9.32,9.32,0,0,1,13-.05c1.62,1.74,2.43,4.19,2.43,7.37v.8H360a7.42,7.42,0,0,0,1.83,4.91,5.41,5.41,0,0,0,4,1.59,5.88,5.88,0,0,0,3.2-.9,3.08,3.08,0,0,0,1.5-2.58H374a6.3,6.3,0,0,1-2.66,4.54A9.38,9.38,0,0,1,365.75,510Zm5-11.81a7,7,0,0,0-1.85-4.12,5,5,0,0,0-3.52-1.36,4.9,4.9,0,0,0-3.48,1.36,6.7,6.7,0,0,0-1.85,4.12Z" transform="translate(0 0)"/>
          <path class="cls-17" d="M381.49,493a7.49,7.49,0,0,1,5.7-2.86q6.44,0,6.44,7v12.46h-3.39V497.25a5.29,5.29,0,0,0-.84-3.35,3.3,3.3,0,0,0-2.73-1c-1.73,0-3.45,1-5.18,3.06v13.64H378.1V490.52h3.39Z" transform="translate(0 0)"/>
          <path class="cls-17" d="M406,509.61a13.06,13.06,0,0,1-2.42.21,5,5,0,0,1-3.06-.74,3.16,3.16,0,0,1-1.2-1.91A17.57,17.57,0,0,1,399,504V493.18h-2.35v-2.66H399v-4.74h3.37v4.74h3.09v2.66h-3.09v11a4.06,4.06,0,0,0,.5,2.49,1.77,1.77,0,0,0,1.35.53A9.24,9.24,0,0,0,406,507Z" transform="translate(0 0)"/>
          <path class="cls-17" d="M288.49,553.7h-4.2l-4.74-7.43-4.74,7.43h-4.2l7-9.89-6.48-9.16h4.2l4.19,6.66,4.18-6.66h4.2l-6.48,9.12Z" transform="translate(0 0)"/>
          <path class="cls-17" d="M302.53,553.7h-3.37V533q-2.06,1.37-6.34,1.36v-2.65c4.13,0,6.5-1.6,7.11-4.78h2.6Z" transform="translate(0 0)"/>
          <path class="cls-17" d="M319.41,526.93q8.58,0,8.58,13.65t-8.58,13.57q-8.57,0-8.56-13.57T319.41,526.93Zm0,24.56a4.1,4.1,0,0,0,3.79-2.4c.86-1.61,1.29-4.44,1.29-8.51s-.43-6.94-1.29-8.56a4.15,4.15,0,0,0-7.56,0q-1.29,2.43-1.29,8.56c0,4.07.43,6.9,1.29,8.51A4.08,4.08,0,0,0,319.41,551.49Z" transform="translate(0 0)"/>
        </g>
      </g>
      <g id="Torqueneedle">
        <g id="Ebene_7" data-name="Ebene 7">
          <g>
            <polygon class="cls-18" points="195.49 404.64 97.39 476.09 93.91 471.93 178.4 384.28 195.49 404.64"/>
            <polygon class="cls-19" points="195.22 403.92 106.32 468.21 103.02 464.27 179.01 384.61 195.22 403.92"/>
          </g>
        </g>
        <circle class="cls-20" cx="300" cy="300" r="162.1"/>
      </g>
      <text id="Torquenumber" class="cls-21" transform="translate(267.98 344.32)">0</text>
      <text/>    </g>
  </g>
</svg>
