<svg width="720" height="720" xmlns="http://www.w3.org/2000/svg" xmlns:xlink="http://www.w3.org/1999/xlink" xml:space="preserve" overflow="hidden"><defs><clipPath id="clip0"><rect x="520" y="0" width="720" height="720"/></clipPath></defs><g clip-path="url(#clip0)" transform="translate(-520 0)"><path d="M325.469 269.842C280.318 264.456 243.029 253.685 204.646 234.907 168.746 217.231 138.78 195.97 110.75 167.796 55.512 112.702 21.8232 45.4536 9.6696-34.0776 6.3576-55.8936 6.3576-109.613 9.8064-131.839 14.9184-165.528 25.4088-200.88 39.2184-230.436 45.5688-244.382 49.0248-248.94 55.1016-252.115 60.7608-255.017 659.225-255.017 664.884-252.115 670.961-248.94 674.41-244.382 680.767-230.436 694.714-200.606 705.485-164.153 710.316-130.464 713.628-107.683 713.628-56.7288 710.316-34.4952 698.58 44.4888 664.337 112.982 609.235 167.796 556.625 220.133 492.552 253.138 417.024 266.666 403.769 269.15 394.099 269.705 365.515 269.978 346.183 270.259 328.097 270.122 325.469 269.842ZM337.896 202.738C337.896 175.118 339.415 169.877 348.113 164.347 359.158 157.579 374.35 161.863 379.462 173.182 381.672 178.013 382.082 182.434 382.082 202.73L382.082 226.62 389.398 225.655C426.406 221.371 458.582 212.81 487.44 199.555L495.173 195.962 486.065 180.504C471.427 155.513 470.045 152.194 470.873 145.289 472.666 129.406 490.896 120.298 503.734 128.858 508.846 132.17 511.603 136.318 524.858 159.098L533.419 173.873 545.018 165.175C560.621 153.576 575.813 139.766 588.65 125.683 599.285 113.947 615.442 93.096 615.442 91.44 615.442 90.8856 607.154 85.7808 597.074 80.1144 575.258 67.6872 570.427 63.684 568.49 56.4984 565.315 44.6256 572.494 32.1984 584.23 29.16 592.373 27.0864 595.829 28.332 618.336 41.4504 628.834 47.5272 637.668 52.4952 638.086 52.4952 639.324 52.4952 651.204 22.5288 655.344 9 662.112-13.2336 667.908-43.056 667.908-55.9008L667.908-60.732 643.327-60.732C622.058-60.732 618.192-61.0056 614.052-63.3528 608.393-66.2544 603.007-75.6432 603.007-82.4112 603.007-89.1792 607.702-97.1856 613.642-100.915 618.61-103.954 620.546-104.227 643.608-104.645L668.326-105.199 667.361-115.697C665.287-139.586 654.797-180.043 644.58-203.378L641.815-209.866 359.705-209.592 77.7384-209.174 72.0792-194.674C62.2728-169.682 54.8208-139.298 52.6104-115.69L51.6456-105.192 76.3632-104.638C99.5616-104.22 101.354-104.083 106.466-100.908 112.27-97.3152 116.82-89.0352 116.964-81.9936 116.964-75.6432 111.442-66.2544 105.919-63.3528 101.779-61.0056 97.9128-60.732 76.3704-60.732L51.6456-60.732 52.6104-49.2696C53.9928-32.2848 59.652-6.1848 66.42 14.2488 71.532 29.7144 79.812 50.292 81.612 52.2216 82.0296 52.4952 90.864 47.664 101.498 41.4504 124.142 28.332 127.598 27.0864 135.742 29.16 147.478 32.1984 154.656 44.6256 151.481 56.4984 149.544 63.6768 144.713 67.6872 122.897 80.1144 112.817 85.7736 104.53 90.8856 104.53 91.44 104.53 93.096 120.823 114.084 130.903 125.136 143.194 138.809 159.761 153.857 174.816 165.182 181.166 170.014 186.552 173.88 186.689 173.743 186.826 173.47 191.801 164.909 197.734 154.685 203.537 144.468 209.75 134.525 211.406 132.869 223.97 118.922 247.032 126.518 249.106 145.296 249.934 152.338 249.106 154.274 234.194 179.82L224.806 195.977 232.538 199.57C261.677 212.825 306.828 224.705 335.549 226.361 337.759 226.483 337.896 224.417 337.896 202.738Z" stroke="#FFFFFF" stroke-width="0.072" fill="#FFFFFF" transform="matrix(1 0 0 -1 520 367.92)"/><path d="M485.237 43.6608C473.22 36.3384 456.098 23.7744 426.276 0.0288 388.994-29.7936 333.756-76.0536 328.514-81.9936 323.957-87.2424 319.954-98.2872 319.954-105.61 319.954-113.753 323.957-123.696 329.897-130.464 342.878-145.102 362.765-147.859 380.57-137.369 388.721-132.538 469.224-9.2232 488.002 27.2304 499.874 50.292 499.457 52.2216 485.237 43.6608Z" stroke="#FFFFFF" stroke-width="0.072" fill="#FFFFFF" transform="matrix(1 0 0 -1 520 367.92)"/></g></svg>