<svg width="2231" height="1894" xmlns="http://www.w3.org/2000/svg" xmlns:xlink="http://www.w3.org/1999/xlink" xml:space="preserve" overflow="hidden"><defs><clipPath id="clip0"><rect x="928" y="55" width="2231" height="1894"/></clipPath></defs><g clip-path="url(#clip0)" transform="translate(-928 -55)"><path d="M2412.74 1139.43 2838.21 1139.43 2838.21 1139.43 3112.17 1139.43 3112.17 1839.91 2838.21 1839.91 2838.21 1413.4 2412.74 1413.4ZM2202.53 55.3029 2206.68 58.3974 2207.02 58.1736 2207.75 59.2001 3158.34 768.558 2176.82 420.098 1572.17 892.081 1572.17 1839.91 1298.21 1839.91 1298.21 885.103 928.163 884.597 1298.21 648.527 1298.21 351.793 1572.17 351.792 1572.17 468.655 2199.44 63.0779Z" fill="#FFFFFF" fill-rule="evenodd"/><text fill="#FFFFFF" font-family="Copperplate Gothic Bold,Copperplate Gothic Bold_MSFontService,sans-serif" font-weight="700" font-size="124" transform="matrix(1 0 0 1 1599.58 1844)">Groß &amp; Heimisch</text><path d="M1931.72 240.962 2203.19 56.3789 2253.44 130.288 1981.97 314.871Z" fill="#FFFFFF" fill-rule="evenodd"/></g></svg>