<svg id="Ebene_1" data-name="Ebene 1" xmlns="http://www.w3.org/2000/svg" viewBox="0 0 4171.18 2248.74"><defs><style>.cls-1,.cls-2{fill:none;stroke-linecap:round;stroke-linejoin:round;}.cls-1{stroke:#344d5f;stroke-width:14px;}.cls-2{stroke:#fff;stroke-width:9px;}</style></defs><path class="cls-1" d="M-1670.78,332.32a164.59,164.59,0,0,1,29.94,12.73,165.55,165.55,0,0,1,26.42,18,166.58,166.58,0,0,1,22.33,22.58,166.92,166.92,0,0,1,17.63,26.42,165.37,165.37,0,0,1,12.34,29.51m-.3,98.26a164.59,164.59,0,0,1-12.73,29.94,165.18,165.18,0,0,1-18,26.43,166.51,166.51,0,0,1-22.58,22.32,165.57,165.57,0,0,1-26.42,17.63,164.64,164.64,0,0,1-29.51,12.34m-98.26-.29a164.63,164.63,0,0,1-29.94-12.74,165.18,165.18,0,0,1-26.43-18,165.36,165.36,0,0,1-22.32-22.58,165.12,165.12,0,0,1-17.63-26.42,164.64,164.64,0,0,1-12.34-29.51m.29-98.26a164.63,164.63,0,0,1,12.74-29.94,165.1,165.1,0,0,1,18-26.42A165.44,165.44,0,0,1-1825,362a166.47,166.47,0,0,1,26.42-17.63A165.37,165.37,0,0,1-1769,332m93.87,75.72a94,94,0,0,1,15,10.25,94.38,94.38,0,0,1,12.69,12.83,93.86,93.86,0,0,1,10,15m-.39,89.63a94.1,94.1,0,0,1-10.25,15,95.55,95.55,0,0,1-12.83,12.69,95.22,95.22,0,0,1-15,10m-89.63-.4a94,94,0,0,1-15-10.24,94.46,94.46,0,0,1-12.69-12.84,94.77,94.77,0,0,1-10-15m.4-89.63a94.5,94.5,0,0,1,10.24-15,94.39,94.39,0,0,1,12.84-12.68,93.42,93.42,0,0,1,15-10m122.45-32.79a140.74,140.74,0,0,1,20.65,17,140.74,140.74,0,0,1,17,20.65q3.77,5.56,7,11.5,1.61,3,3.08,6m2.79,114.81a139.26,139.26,0,0,1-12.86,23.7,140.22,140.22,0,0,1-17,20.65,139.49,139.49,0,0,1-20.65,17M2063.58-700.39A89.16,89.16,0,0,1,2034-720.17a89.28,89.28,0,0,1-19.54-29.68,89.46,89.46,0,0,1-6.42-33.7,89.57,89.57,0,0,1,6.68-33.65,89,89,0,0,1,19.78-29.53,89.31,89.31,0,0,1,29.68-19.55,89.85,89.85,0,0,1,33.7-6.42,89.77,89.77,0,0,1,33.65,6.68,89.33,89.33,0,0,1,29.53,19.78,89.31,89.31,0,0,1,19.55,29.68m-37.79,155.18c-1.27.47-2.54.92-3.82,1.36q-3.84,1.29-7.74,2.34l-3.84,40.36a169.71,169.71,0,0,1-30.11,2.68,170.33,170.33,0,0,1-31.42-2.93L2062.41-658a130.12,130.12,0,0,1-30-12.55l-31.23,25.81a169.67,169.67,0,0,1-43.35-43.68l26.07-31a128.76,128.76,0,0,1-12.32-30.07l-40.37-3.83a169.79,169.79,0,0,1-2.68-30.11,170.25,170.25,0,0,1,2.93-31.42l40.39-3.53a129.5,129.5,0,0,1,12.55-30l-25.81-31.23a169.48,169.48,0,0,1,43.68-43.34l31,26a129.88,129.88,0,0,1,30.08-12.32l3.83-40.35a169.71,169.71,0,0,1,30.11-2.68,169.39,169.39,0,0,1,31.42,2.93l3.53,40.36a129.61,129.61,0,0,1,30,12.56l31.22-25.8a170,170,0,0,1,43.34,43.68l-26,31a128.91,128.91,0,0,1,12.32,30.09l40.34,3.83a169.82,169.82,0,0,1,2.68,30.12,169.36,169.36,0,0,1-2.93,31.41l-40.37,3.53c-.71,2.59-1.51,5.17-2.4,7.72-.41,1.19-.84,2.38-1.29,3.56M2164.53-749l80.64,80.63a23.23,23.23,0,0,1,0,32.72h0a23.21,23.21,0,0,1-32.73,0l-80.63-80.63a59,59,0,0,1-63.71-13,59,59,0,0,1-11.81-66.53l40.62,40.62,21.15-7.53,7.53-21.15L2085-824.5a59,59,0,0,1,66.54,11.81,59,59,0,0,1,13,63.71ZM-1890,1275.18c7.8,4.12,15.8,7.34,24.43,7.34,17,0,29.59-20.74,46.58-20.74,17.89,0,31.61,20.74,49.49,20.74,17,0,29.58-20.74,46.58-20.74,17.88,0,31.6,20.74,49.49,20.74,17,0,29.58-20.74,46.57-20.74,17.89,0,31.61,20.74,49.49,20.74,10,0,19-4.79,27.84-10.14m-341.51-41.7c7.81,4.11,15.8,7.34,24.44,7.34,17,0,29.59-20.75,46.58-20.75,17.88,0,31.6,20.75,49.49,20.75,17,0,29.58-20.75,46.57-20.75,17.89,0,31.61,20.75,49.49,20.75,17,0,29.58-20.75,46.58-20.75,17.88,0,31.6,20.75,49.49,20.75,10,0,19-4.79,27.84-10.14m-166-164.52-9.16-81.89c-3.49-31.21,29.07-33,32.5-8.59l14.88,128.17m-85.43-28.64-33.13-98.89c-10-29.77,24-36.86,30.92-13.18l29.41,107.14m-62.78,32-49.47-79.42c-16.6-26.65,16.14-40.92,27.65-19.1l41,84.45m-20.73,109.8c-21.8-50.18-6.15-49.28-71.29-104.47-23.95-20.3,6.6-43.49,22.7-24.79l38.69,47m147.89,84,47-69.71,30.05-31.55c7.86-20.86-37.51-23-54.66-1.31L-1667,1128m0,0c-33.12,4.78-56.29,31.59-54,57.56m4.78-120.62a118,118,0,0,0-20.35,2.55m-25.68,8.46a124.06,124.06,0,0,0-17.86,10.09m-19.24,13.48c-4.86,4.27-7.92,8.72-11.58,13" transform="translate(1898.04 959.22)"/><path class="cls-2" d="M20.16,208.6c4.57,2.4,9.25,4.29,14.31,4.29,10,0,17.32-12.14,27.28-12.14,10.47,0,18.5,12.14,29,12.14,10,0,17.32-12.14,27.28-12.14,10.47,0,18.5,12.14,29,12.14,9.95,0,17.32-12.14,27.27-12.14,10.48,0,18.51,12.14,29,12.14,5.85,0,11.12-2.8,16.3-5.93" transform="translate(1898.04 959.22)"/><path class="cls-2" d="M19.55,182.53c4.57,2.41,9.26,4.3,14.31,4.3,10,0,17.33-12.15,27.28-12.15,10.48,0,18.51,12.15,29,12.15,10,0,17.33-12.15,27.28-12.15,10.48,0,18.51,12.15,29,12.15,10,0,17.33-12.15,27.28-12.15,10.47,0,18.51,12.15,29,12.15,5.86,0,11.12-2.81,16.31-5.94" transform="translate(1898.04 959.22)"/><path class="cls-2" d="M121.75,84.54l-5.37-47.95c-2-18.28,17-19.34,19-5l8.72,75.06" transform="translate(1898.04 959.22)"/><path class="cls-2" d="M94.1,89.84,74.7,31.93c-5.85-17.43,14-21.58,18.1-7.72L110,87" transform="translate(1898.04 959.22)"/><path class="cls-2" d="M73.26,105.71l-29-46.51c-9.72-15.61,9.45-24,16.19-11.19l24,49.46" transform="translate(1898.04 959.22)"/><path class="cls-2" d="M72.35,161.77c-12.76-29.39-3.6-28.86-41.75-61.18-14-11.89,3.87-25.47,13.29-14.52l22.66,27.55" transform="translate(1898.04 959.22)"/><path class="cls-2" d="M153.16,162.82,180.67,122l17.6-18.48c4.6-12.22-22-13.49-32-.77l-15.5,19.64" transform="translate(1898.04 959.22)"/><path class="cls-2" d="M150.76,122.39c-19.4,2.8-33,18.51-31.61,33.72" transform="translate(1898.04 959.22)"/><path class="cls-2" d="M121.94,85.47A68.54,68.54,0,0,0,110,87" transform="translate(1898.04 959.22)"/><path class="cls-2" d="M95,91.91a72.3,72.3,0,0,0-10.46,5.91" transform="translate(1898.04 959.22)"/><path class="cls-2" d="M73.26,105.71c-2.85,2.51-4.64,5.11-6.79,7.63" transform="translate(1898.04 959.22)"/></svg>