<svg xmlns="http://www.w3.org/2000/svg" xmlns:svgjs="http://svgjs.com/svgjs" xmlns:xlink="http://www.w3.org/1999/xlink" width="288" height="288"><svg xmlns="http://www.w3.org/2000/svg" width="288" height="288" enable-background="new 0 0 595.28 841.89" viewBox="0 0 595.28 841.89"><switch><g fill="#fff" class="color000 svgShape"><path fill="#1255a0" d="M196.371,392.925c12.163-22.321,40.217-30.586,62.539-18.422
							c22.32,12.162,30.585,40.219,18.421,62.539c-12.161,22.32-40.218,30.584-62.538,18.423
							C192.471,443.3,184.208,415.244,196.371,392.925z M270.842,433.506c10.214-18.744,3.273-42.301-15.468-52.514
							c-18.742-10.213-42.3-3.275-52.513,15.469c-10.213,18.743-3.273,42.301,15.468,52.514
							C237.071,459.188,260.629,452.247,270.842,433.506z" class="color1255A0 svgShape" opacity=".3"/><path fill="#1255a0" d="M199.145,399.866c12.165-22.323,40.219-30.588,62.542-18.424
							c22.319,12.163,30.583,40.218,18.419,62.541c-12.162,22.318-40.216,30.583-62.536,18.42
							C195.246,450.239,186.983,422.184,199.145,399.866z M273.617,440.447c10.215-18.745,3.273-42.305-15.467-52.517
							c-18.747-10.215-42.301-3.273-52.516,15.472c-10.213,18.741-3.277,42.298,15.47,52.514
							C239.844,466.128,263.404,459.188,273.617,440.447z" class="color1255A0 svgShape" opacity=".5"/><path fill="#1255a0" d="M198.101,396.701c12.163-22.321,40.218-30.586,62.538-18.423
							c22.322,12.163,30.585,40.218,18.422,62.541c-12.162,22.317-40.218,30.584-62.539,18.421
							C194.201,447.076,185.938,419.02,198.101,396.701z M272.57,437.282c10.214-18.745,3.274-42.301-15.467-52.514
							c-18.742-10.214-42.302-3.275-52.516,15.469c-10.213,18.741-3.272,42.3,15.471,52.514
							C238.8,462.963,262.357,456.023,272.57,437.282z" class="color1255A0 svgShape" opacity=".4"/><path fill="#1255a0" d="M200.85,404.391c12.164-22.321,40.218-30.585,62.538-18.422c11.161,6.082,18.808,16.137,22.144,27.461
							c1.268,4.307-0.229,8.463-0.252,12.987c-0.021,4.247,1.514,8.857,0.282,13.044c-0.907,3.082-2.152,6.114-3.751,9.047
							c-12.164,22.321-40.219,30.584-62.539,18.421C196.949,454.766,188.687,426.711,200.85,404.391z M275.319,444.971
							c10.214-18.742,3.278-42.297-15.468-52.513c-18.74-10.211-42.3-3.273-52.512,15.469
							c-10.215,18.743-3.272,42.302,15.468,52.514C241.553,470.654,265.106,463.715,275.319,444.971z" class="color1255A0 svgShape" opacity=".3"/><path fill="#1255a0" d="M210.908,401.566c7.902-14.504,26.134-19.874,40.639-11.97c14.504,7.903,19.875,26.135,11.971,40.639
							c-7.903,14.504-26.134,19.872-40.639,11.97C208.375,434.301,203.004,416.07,210.908,401.566z M259.301,427.937
							c6.637-12.179,2.129-27.486-10.052-34.124c-12.179-6.635-27.485-2.127-34.122,10.053c-6.637,12.179-2.13,27.487,10.049,34.124
							C237.356,444.625,252.664,440.115,259.301,427.937z" class="color1255A0 svgShape" opacity=".4"/><path fill="#1255a0" d="M212.711,406.078c7.904-14.505,26.135-19.876,40.639-11.972c14.505,7.903,19.872,26.134,11.969,40.639
							c-7.902,14.502-26.131,19.872-40.635,11.968C210.178,438.81,204.809,420.581,212.711,406.078z M261.103,432.448
							c6.638-12.181,2.128-27.488-10.051-34.124c-12.179-6.637-27.485-2.129-34.123,10.053
							c-6.636,12.176-2.128,27.483,10.052,34.121C239.16,449.135,254.467,444.625,261.103,432.448z" class="color1255A0 svgShape" opacity=".7"/><path fill="#1255a0" d="M212.032,404.021c7.904-14.503,26.134-19.876,40.64-11.971c14.504,7.902,19.873,26.136,11.969,40.638
							c-7.902,14.504-26.133,19.874-40.637,11.97C209.498,436.755,204.129,418.524,212.032,404.021z M260.424,430.391
							c6.637-12.18,2.127-27.486-10.05-34.123c-12.181-6.637-27.488-2.127-34.126,10.052c-6.636,12.18-2.127,27.487,10.053,34.123
							C238.479,447.079,253.787,442.57,260.424,430.391z" class="color1255A0 svgShape" opacity=".1"/><path fill="#1255a0" d="M213.902,409.007c7.904-14.505,26.135-19.873,40.637-11.971c14.504,7.904,19.876,26.133,11.973,40.638
							c-7.904,14.505-26.136,19.873-40.64,11.969C211.369,441.741,205.999,423.51,213.902,409.007z M262.294,435.375
							c6.637-12.179,2.128-27.485-10.052-34.123c-12.178-6.636-27.484-2.126-34.121,10.054c-6.636,12.177-2.129,27.484,10.049,34.12
							C240.351,452.063,255.658,447.553,262.294,435.375z" class="color1255A0 svgShape" opacity=".6"/><g class="color000 svgShape"><rect width="1" height="97.584" x="285.061" y="378.398" class="color000 svgShape"/></g><g class="color000 svgShape"><path d="M305.218 384.504v25.197h-2.376v-25.197H305.218zM311.158 384.504h14.471v2.232h-12.096v8.711h9.936v2.231h-9.936v12.022h-2.375V384.504zM329.949 386.736v-2.232h15.406v1.152l-12.525 21.813h12.777v2.232h-16.09v-1.152l12.67-21.813H329.949zM366.451 384.504h2.375v25.197h-2.807l-12.49-21.346v21.346h-2.376v-25.197h2.808l12.49 21.418V384.504z" class="color000 svgShape"/></g><g class="color000 svgShape"><path d="M302.86 426.969h-.844v-6.398h.844V426.969zM305.045 422.213l.025.598c.363-.457.838-.686 1.424-.686 1.006 0 1.512.567 1.521 1.701v3.143h-.813v-3.146c-.003-.344-.081-.597-.235-.761-.153-.164-.393-.246-.719-.246-.264 0-.494.07-.693.211s-.355.325-.467.554v3.389h-.813v-4.756H305.045zM312.01 425.707c0-.22-.083-.391-.248-.512-.166-.121-.455-.227-.866-.314s-.738-.193-.979-.316c-.242-.123-.421-.27-.536-.439-.116-.17-.174-.372-.174-.606 0-.39.165-.72.494-.989.33-.27.751-.404 1.264-.404.539 0 .976.14 1.312.418s.504.635.504 1.068h-.818c0-.223-.094-.415-.283-.576-.188-.161-.427-.242-.714-.242-.296 0-.527.064-.694.193s-.25.298-.25.506c0 .196.077.344.232.443s.436.195.842.286c.405.091.734.199.986.325s.438.277.561.455c.121.178.182.393.182.648 0 .424-.17.766-.51 1.021s-.78.385-1.322.385c-.381 0-.718-.068-1.011-.203s-.522-.322-.688-.564c-.166-.242-.249-.503-.249-.784h.813c.015.272.124.489.327.647.203.16.473.24.807.24.308 0 .555-.063.74-.188C311.916 426.082 312.01 425.915 312.01 425.707zM314.984 421.063v1.15h.889v.629h-.889v2.953c0 .189.04.333.119.428.079.096.214.144.404.144.094 0 .223-.018.387-.053v.655c-.214.059-.422.088-.624.088-.363 0-.638-.11-.821-.33-.186-.22-.277-.531-.277-.936v-2.949h-.865v-.629h.865v-1.15H314.984zM316.826 420.952c0-.132.04-.243.121-.334.08-.091.199-.136.357-.136s.279.045.361.136.123.202.123.334-.041.241-.123.329-.203.133-.361.133-.277-.045-.357-.133C316.866 421.193 316.826 421.084 316.826 420.952zM317.705 426.969h-.813v-4.756h.813V426.969zM320.109 421.063v1.15h.887v.629h-.887v2.953c0 .189.039.333.118.428.079.096.214.144.404.144.094 0 .223-.018.387-.053v.655c-.214.059-.422.088-.624.088-.363 0-.637-.11-.822-.33-.184-.22-.276-.531-.276-.936v-2.949h-.866v-.629h.866v-1.15H320.109zM324.881 426.498c-.316.372-.78.559-1.393.559-.507 0-.893-.148-1.158-.441-.266-.295-.398-.73-.402-1.309v-3.094h.813v3.072c0 .721.293 1.081.879 1.081.621 0 1.034-.231 1.239-.694v-3.459h.813v4.756h-.773L324.881 426.498zM328.01 421.063v1.15h.889v.629h-.889v2.953c0 .189.04.333.119.428.079.096.214.144.404.144.094 0 .223-.018.387-.053v.655c-.214.059-.422.088-.624.088-.363 0-.638-.11-.821-.33-.186-.22-.277-.531-.277-.936v-2.949h-.865v-.629h.865v-1.15H328.01zM332.475 426.969v-4.127h-.751v-.629h.751v-.487c0-.51.137-.903.409-1.183.272-.277.657-.417 1.155-.417.188 0 .374.024.559.074l-.044.655c-.138-.026-.284-.039-.439-.039-.264 0-.468.076-.61.23-.145.154-.216.376-.216.664v.502h1.015v.629h-1.015v4.127H332.475zM338.135 426.498c-.316.372-.78.559-1.393.559-.507 0-.893-.148-1.158-.441-.266-.295-.398-.73-.402-1.309v-3.094h.813v3.072c0 .721.293 1.081.879 1.081.621 0 1.034-.231 1.239-.694v-3.459h.813v4.756h-.773L338.135 426.498zM335.661 420.941c0-.133.04-.244.12-.334.081-.09.201-.135.359-.135s.277.045.359.135.123.201.123.334-.041.242-.123.331-.201.132-.359.132-.278-.043-.359-.132C335.701 421.184 335.661 421.074 335.661 420.941zM337.551 420.949c0-.132.04-.244.121-.335.08-.091.199-.137.357-.137s.279.046.361.137.123.203.123.336c0 .132-.041.243-.123.331s-.203.133-.361.133-.277-.045-.357-.133C337.591 421.193 337.551 421.082 337.551 420.949zM342.459 422.943c-.123-.021-.256-.031-.399-.031-.533 0-.896.227-1.085.682v3.375h-.813v-4.756h.791l.013.55c.268-.425.645-.638 1.135-.638.158 0 .277.021.359.063V422.943zM349.091 424.143h-2.685v2.826h-.844v-6.398h3.963v.689h-3.119v2.193h2.685V424.143zM353.195 426.969c-.047-.094-.085-.262-.114-.502-.378.393-.829.59-1.354.59-.469 0-.854-.133-1.153-.398-.301-.265-.451-.602-.451-1.008 0-.496.188-.88.565-1.154.376-.273.905-.41 1.589-.41h.791v-.374c0-.284-.086-.511-.256-.679s-.42-.253-.751-.253c-.29 0-.533.073-.729.22s-.295.324-.295.531h-.816c0-.236.084-.466.252-.688.168-.221.396-.396.686-.525s.605-.193.951-.193c.549 0 .978.138 1.288.412.311.273.472.65.483 1.131v2.188c0 .437.056.784.167 1.042v.07H353.195zM351.846 426.349c.256 0 .497-.065.726-.198.229-.131.394-.303.497-.514v-.976h-.638c-.996 0-1.494.292-1.494.874 0 .256.085.455.255.598C351.361 426.277 351.58 426.349 351.846 426.349zM355.969 422.789c.359-.442.828-.664 1.406-.664 1.004 0 1.512.567 1.52 1.701v3.143h-.813v-3.146c-.003-.344-.081-.597-.235-.761-.153-.164-.394-.246-.718-.246-.264 0-.496.07-.695.211s-.354.325-.465.554v3.389h-.813v-6.75h.813V422.789zM362.41 422.943c-.123-.021-.256-.031-.399-.031-.533 0-.896.227-1.085.682v3.375h-.813v-4.756h.791l.013.55c.268-.425.645-.638 1.135-.638.158 0 .277.021.359.063V422.943zM363.922 426.305h2.782v.664h-3.774v-.598l2.623-3.485h-2.584v-.673h3.604v.576L363.922 426.305zM369.521 427.057c-.645 0-1.17-.212-1.574-.635-.404-.424-.605-.99-.605-1.699v-.149c0-.472.09-.893.27-1.263.181-.371.432-.661.756-.871.324-.209.675-.314 1.053-.314.618 0 1.099.204 1.441.611s.514.99.514 1.749v.339h-3.221c.012.469.148.848.411 1.135.262.289.595.434.999.434.287 0 .531-.059.73-.176s.373-.272.522-.466l.497.387C370.916 426.75 370.318 427.057 369.521 427.057zM369.42 422.793c-.328 0-.604.12-.826.359-.223.238-.36.572-.413 1.004h2.382v-.063c-.023-.412-.135-.732-.334-.959C370.029 422.907 369.76 422.793 369.42 422.793zM375.252 426.498c-.316.372-.781.559-1.394.559-.507 0-.894-.148-1.157-.441-.266-.295-.4-.73-.402-1.309v-3.094h.813v3.072c0 .721.293 1.081.879 1.081.621 0 1.034-.231 1.239-.694v-3.459h.813v4.756h-.773L375.252 426.498zM377.084 424.551c0-.74.172-1.33.514-1.768.344-.438.797-.658 1.363-.658.58 0 1.032.205 1.357.615l.039-.527h.743v4.641c0 .615-.183 1.101-.547 1.455-.365.354-.854.531-1.47.531-.344 0-.679-.072-1.007-.219s-.579-.348-.751-.603l.422-.487c.348.43.774.646 1.278.646.396 0 .704-.111.925-.334s.332-.536.332-.94v-.408c-.325.375-.77.563-1.332.563-.557 0-1.007-.225-1.351-.673C377.256 425.936 377.084 425.324 377.084 424.551zM377.901 424.644c0 .536.11.958.329 1.263.221.307.527.46.924.46.512 0 .889-.233 1.129-.698v-2.172c-.249-.453-.623-.681-1.121-.681-.395 0-.704.153-.927.462C378.013 423.584 377.901 424.04 377.901 424.644zM383.43 421.063v1.15h.888v.629h-.888v2.953c0 .189.039.333.119.428.078.096.213.144.404.144.094 0 .223-.018.387-.053v.655c-.215.059-.422.088-.625.088-.363 0-.637-.11-.821-.33s-.276-.531-.276-.936v-2.949h-.866v-.629h.866v-1.15H383.43zM387.24 427.057c-.645 0-1.17-.212-1.574-.635-.404-.424-.605-.99-.605-1.699v-.149c0-.472.09-.893.27-1.263.181-.371.432-.661.756-.871.324-.209.675-.314 1.053-.314.618 0 1.099.204 1.441.611s.514.99.514 1.749v.339h-3.221c.012.469.148.848.411 1.135.262.289.595.434.999.434.287 0 .531-.059.73-.176s.373-.272.522-.466l.497.387C388.635 426.75 388.037 427.057 387.24 427.057zM387.139 422.793c-.328 0-.604.12-.826.359-.223.238-.36.572-.413 1.004h2.382v-.063c-.023-.412-.135-.732-.334-.959C387.748 422.907 387.479 422.793 387.139 422.793zM391.941 426.393c.291 0 .544-.088.761-.264s.337-.396.36-.659h.77c-.016.272-.109.532-.281.778-.174.246-.404.441-.693.588-.288.146-.594.221-.916.221-.646 0-1.162-.217-1.545-.648-.381-.432-.572-1.023-.572-1.773v-.137c0-.463.084-.874.254-1.234s.414-.641.732-.84c.317-.199.693-.299 1.127-.299.533 0 .977.16 1.33.479.352.319.541.733.564 1.243h-.77c-.023-.307-.141-.561-.35-.758s-.468-.297-.775-.297c-.413 0-.733.149-.961.447-.227.297-.34.727-.34 1.289v.154c0 .547.113.969.338 1.266C391.201 426.244 391.523 426.393 391.941 426.393zM395.559 422.789c.36-.442.829-.664 1.406-.664 1.005 0 1.512.567 1.521 1.701v3.143h-.813v-3.146c-.002-.344-.08-.597-.234-.761s-.394-.246-.719-.246c-.264 0-.495.07-.694.211s-.354.325-.466.554v3.389h-.813v-6.75h.813V422.789zM400.472 422.213l.026.598c.363-.457.838-.686 1.424-.686 1.005 0 1.512.567 1.521 1.701v3.143h-.813v-3.146c-.002-.344-.08-.597-.234-.761s-.394-.246-.719-.246c-.264 0-.495.07-.694.211s-.354.325-.466.554v3.389h-.813v-4.756H400.472zM404.673 420.952c0-.132.04-.243.12-.334.081-.091.201-.136.359-.136s.277.045.359.136.123.202.123.334-.041.241-.123.329-.201.133-.359.133-.278-.045-.359-.133C404.713 421.193 404.673 421.084 404.673 420.952zM405.552 426.969h-.813v-4.756h.813V426.969zM408.18 424.767l-.51.532v1.67h-.813v-6.75h.813v4.082l.436-.523 1.48-1.564h.988l-1.85 1.986 2.065 2.77h-.954L408.18 424.767zM306.785 435.969h-.541l-3.678-5.477v5.477h-.545v-6.398h.545l3.682 5.479v-5.479h.537V435.969zM311.346 435.366c-.316.46-.821.69-1.516.69-.507 0-.893-.148-1.156-.441-.264-.295-.398-.73-.404-1.309v-3.094h.523v3.028c0 .905.366 1.358 1.099 1.358.762 0 1.243-.315 1.446-.945v-3.441h.527v4.756h-.51L311.346 435.366zM308.807 429.834c0-.1.031-.184.096-.254.064-.068.152-.103.264-.103s.201.034.266.103c.066.07.1.154.1.254 0 .096-.033.178-.1.246-.064.066-.154.101-.266.101s-.199-.034-.264-.101C308.838 430.012 308.807 429.93 308.807 429.834zM310.73 429.838c0-.1.033-.184.098-.252.064-.069.152-.104.264-.104s.199.034.266.104c.066.068.099.152.099.252 0 .097-.032.179-.099.246s-.154.102-.266.102-.199-.034-.264-.102S310.73 429.935 310.73 429.838zM315.429 431.662c-.111-.021-.229-.031-.356-.031-.328 0-.605.092-.832.275-.228.183-.389.448-.486.797v3.266h-.522v-4.756h.515l.008.756c.279-.563.726-.844 1.341-.844.146 0 .263.02.347.058L315.429 431.662zM316.76 431.213l.018.813c.18-.293.402-.517.668-.671.268-.152.562-.23.884-.23.51 0 .89.145 1.138.432.25.287.375.717.379 1.291v3.121h-.523v-3.125c-.003-.425-.094-.741-.27-.949-.178-.208-.461-.313-.852-.313-.324 0-.613.103-.863.307-.25.203-.436.478-.556.823v3.257h-.522v-4.756H316.76zM325.031 433.639c0 .742-.164 1.33-.492 1.766-.328.434-.77.652-1.323.652-.662 0-1.163-.246-1.503-.738l-.021.65h-.492v-6.75h.522v2.685c.334-.519.829-.778 1.485-.778.563 0 1.007.215 1.334.645.326.43.49 1.025.49 1.791V433.639zM324.504 433.547c0-.627-.122-1.111-.365-1.453-.243-.34-.586-.512-1.028-.512-.337 0-.622.084-.856.248-.234.166-.412.408-.532.729v2.145c.264.598.729.896 1.397.896.434 0 .772-.172 1.018-.515C324.381 434.742 324.504 434.229 324.504 433.547zM328.032 436.057c-.404 0-.771-.1-1.097-.299s-.58-.477-.762-.834c-.182-.355-.273-.754-.273-1.197v-.188c0-.457.089-.868.266-1.235.178-.365.425-.653.741-.863.316-.209.659-.314 1.028-.314.577 0 1.035.197 1.373.592s.508.932.508 1.615v.294h-3.393v.101c0 .539.154.988.463 1.348.31.359.699.538 1.168.538.281 0 .529-.052.744-.153.215-.104.411-.268.587-.492l.329.25C329.328 435.776 328.768 436.057 328.032 436.057zM327.936 431.574c-.396 0-.729.145-1 .435s-.436.68-.494 1.169h2.852v-.057c-.014-.457-.145-.83-.391-1.117S328.334 431.574 327.936 431.574zM333.037 431.662c-.111-.021-.229-.031-.355-.031-.328 0-.605.092-.832.275-.229.183-.39.448-.486.797v3.266h-.523v-4.756h.515l.009.756c.278-.563.725-.844 1.34-.844.146 0 .263.02.348.058L333.037 431.662zM333.574 433.547c0-.744.164-1.334.494-1.77.33-.434.777-.652 1.342-.652.648 0 1.141.258 1.477.773l.027-.686h.492v4.658c0 .613-.172 1.098-.515 1.455s-.808.536-1.394.536c-.33 0-.646-.074-.947-.222-.3-.148-.536-.346-.709-.592l.295-.316c.371.457.814.686 1.326.686.439 0 .783-.129 1.029-.389s.373-.619.382-1.078v-.598c-.337.469-.827.703-1.472.703-.551 0-.994-.221-1.328-.66s-.5-1.032-.5-1.779V433.547zM334.105 433.639c0 .607.121 1.086.365 1.436.242.35.586.525 1.027.525.648 0 1.106-.291 1.376-.871v-2.21c-.123-.305-.3-.536-.532-.696-.23-.16-.51-.24-.834-.24-.443 0-.787.174-1.033.521S334.105 432.963 334.105 433.639z" class="color000 svgShape"/></g></g></switch></svg></svg>