<svg width="88" height="53" xmlns="http://www.w3.org/2000/svg" xmlns:xlink="http://www.w3.org/1999/xlink" xml:space="preserve" overflow="hidden"><defs><clipPath id="clip0"><rect x="601" y="334" width="88" height="53"/></clipPath></defs><g clip-path="url(#clip0)" transform="translate(-601 -334)"><path d="M66.7545 133.571C70.8892 125.983 80.4258 123.174 88.014 127.309 95.6015 131.443 98.4111 140.981 94.276 148.568 90.142 156.156 80.6043 158.965 73.0169 154.831 65.4287 150.696 62.6198 141.158 66.7545 133.571ZM92.0702 147.366C95.5423 140.994 93.1828 132.986 86.812 129.515 80.4408 126.043 72.4325 128.401 68.9607 134.773 65.4889 141.145 67.8481 149.153 74.2189 152.625 80.59 156.097 88.5984 153.737 92.0702 147.366Z" fill="#1255A0" fill-opacity="0.3" transform="matrix(1.00749 0 0 1 537.896 217.162)"/><path d="M67.6975 135.931C71.8328 128.342 81.3695 125.533 88.958 129.668 96.5452 133.802 99.3544 143.339 95.2194 150.928 91.085 158.515 81.5483 161.324 73.9609 157.19 66.372 153.055 63.5631 143.517 67.6975 135.931ZM93.0135 149.726C96.486 143.354 94.1261 135.345 87.7557 131.873 81.3828 128.401 73.3758 130.761 69.9033 137.133 66.4315 143.504 68.7893 151.512 75.1622 154.984 81.5327 158.456 89.5417 156.097 93.0135 149.726Z" fill="#1255A0" fill-opacity="0.5" transform="matrix(1.00749 0 0 1 537.896 217.162)"/><path d="M67.3426 134.855C71.4773 127.267 81.0143 124.457 88.6018 128.592 96.1899 132.727 98.9988 142.264 94.8642 149.852 90.7298 157.439 81.1924 160.249 73.6046 156.114 66.0168 151.979 63.2079 142.442 67.3426 134.855ZM92.6576 148.65C96.1297 142.278 93.7706 134.27 87.3997 130.798 81.0286 127.326 73.0196 129.685 69.5474 136.057 66.0756 142.428 68.4351 150.436 74.8066 153.908 81.1778 157.38 89.1858 155.021 92.6576 148.65Z" fill="#1255A0" fill-opacity="0.4" transform="matrix(1.00749 0 0 1 537.896 217.162)"/><path d="M68.2771 137.469C72.4121 129.881 81.9488 127.072 89.5363 131.207 93.3303 133.274 95.9299 136.692 97.0639 140.542 97.4949 142.006 96.9861 143.419 96.9782 144.956 96.9711 146.4 97.4929 147.967 97.0741 149.391 96.7658 150.438 96.3426 151.469 95.799 152.466 91.6639 160.054 82.1269 162.863 74.5394 158.728 66.951 154.593 64.1424 145.056 68.2771 137.469ZM93.5921 151.264C97.0642 144.893 94.7064 136.885 88.3339 133.412 81.9634 129.941 73.9544 132.3 70.4829 138.671 67.0104 145.042 69.3707 153.051 75.7411 156.523 82.1137 159.994 90.1203 157.636 93.5921 151.264Z" fill="#1255A0" fill-opacity="0.3" transform="matrix(1.00749 0 0 1 537.896 217.162)"/><path d="M71.6962 136.509C74.3824 131.578 80.5802 129.753 85.511 132.439 90.4415 135.126 92.2673 141.324 89.5805 146.254 86.8939 151.185 80.6964 153.01 75.7656 150.323 70.8351 147.637 69.0093 141.439 71.6962 136.509ZM88.1469 145.473C90.4031 141.333 88.8707 136.13 84.7298 133.873 80.5897 131.618 75.3866 133.15 73.1304 137.29 70.8742 141.431 72.4063 146.634 76.5464 148.891 80.6869 151.146 85.8907 149.613 88.1469 145.473Z" fill="#1255A0" fill-opacity="0.4" transform="matrix(1.00749 0 0 1 537.896 217.162)"/><path d="M72.3091 138.042C74.996 133.112 81.1934 131.286 86.1239 133.973 91.0548 136.659 92.8792 142.857 90.1927 147.787 87.5065 152.717 81.3097 154.543 76.3792 151.856 71.448 149.169 69.6229 142.973 72.3091 138.042ZM88.7595 147.007C91.016 142.866 89.4829 137.662 85.3428 135.406 81.2026 133.15 75.9995 134.683 73.743 138.824 71.4871 142.963 73.0196 148.166 77.16 150.423 81.3002 152.679 86.5036 151.146 88.7595 147.007Z" fill="#1255A0" fill-opacity="0.7" transform="matrix(1.00749 0 0 1 537.896 217.162)"/><path d="M72.0783 137.343C74.7652 132.413 80.9623 130.586 85.8935 133.274 90.824 135.96 92.6491 142.158 89.9622 147.088 87.276 152.019 81.0785 153.844 76.148 151.157 71.2169 148.471 69.3917 142.273 72.0783 137.343ZM88.5287 146.307C90.7849 142.167 89.2517 136.964 85.1123 134.708 80.9715 132.451 75.768 133.984 73.5115 138.125 71.2556 142.265 72.7884 147.469 76.9289 149.724 81.0687 151.98 86.2725 150.447 88.5287 146.307Z" fill="#1255A0" fill-opacity="0.1" transform="matrix(1.00749 0 0 1 537.896 217.162)"/><path d="M72.714 139.038C75.4009 134.107 81.5983 132.282 86.5281 134.969 91.4586 137.656 93.2848 143.852 90.5982 148.783 87.9113 153.714 81.7136 155.539 76.7831 152.852 71.8529 150.166 70.0274 143.968 72.714 139.038ZM89.1644 148.002C91.4206 143.861 89.8878 138.658 85.7473 136.402 81.6075 134.146 76.4044 135.679 74.1482 139.82 71.8923 143.959 73.4244 149.163 77.5642 151.418 81.705 153.675 86.9085 152.141 89.1644 148.002Z" fill="#1255A0" fill-opacity="0.6" transform="matrix(1.00749 0 0 1 537.896 217.162)"/><path d="M96.9038 128.633 97.2437 128.633 97.2437 161.806 96.9038 161.806Z" fill="#FFFFFF" transform="matrix(1.00749 0 0 1 537.896 217.162)"/><path d="M103.756 130.708 103.756 139.274 102.948 139.274 102.948 130.708 103.756 130.708ZM105.775 130.708 110.694 130.708 110.694 131.467 106.583 131.467 106.583 134.428 109.96 134.428 109.96 135.187 106.583 135.187 106.583 139.274 105.775 139.274 105.775 130.708ZM112.163 131.467 112.163 130.708 117.4 130.708 117.4 131.1 113.142 138.515 117.486 138.515 117.486 139.274 112.016 139.274 112.016 138.882 116.323 131.467 112.163 131.467ZM124.572 130.708 125.379 130.708 125.379 139.274 124.425 139.274 120.179 132.018 120.179 139.274 119.371 139.274 119.371 130.708 120.326 130.708 124.572 137.989 124.572 130.708Z" fill="#FFFFFF" transform="matrix(1.00749 0 0 1 537.896 217.162)"/><path d="M102.954 145.144 102.667 145.144 102.667 142.969 102.954 142.969 102.954 145.144ZM103.697 143.527 103.706 143.731C103.829 143.575 103.991 143.497 104.19 143.497 104.532 143.497 104.704 143.69 104.707 144.076L104.707 145.144 104.43 145.144 104.43 144.075C104.429 143.958 104.403 143.872 104.351 143.816 104.299 143.76 104.217 143.732 104.106 143.732 104.016 143.732 103.938 143.756 103.871 143.804 103.803 143.852 103.75 143.915 103.712 143.992L103.712 145.144 103.435 145.144 103.435 143.528 103.697 143.528ZM106.065 144.715C106.065 144.64 106.037 144.582 105.981 144.541 105.924 144.5 105.826 144.464 105.686 144.434 105.546 144.405 105.435 144.369 105.353 144.327 105.271 144.285 105.21 144.235 105.171 144.178 105.132 144.12 105.112 144.051 105.112 143.972 105.112 143.839 105.168 143.727 105.28 143.635 105.392 143.544 105.535 143.498 105.71 143.498 105.893 143.498 106.041 143.546 106.156 143.64 106.27 143.735 106.327 143.856 106.327 144.003L106.049 144.003C106.049 143.927 106.017 143.862 105.953 143.807 105.889 143.753 105.808 143.725 105.71 143.725 105.609 143.725 105.531 143.747 105.474 143.791 105.417 143.835 105.389 143.892 105.389 143.963 105.389 144.029 105.415 144.08 105.468 144.113 105.521 144.147 105.616 144.18 105.754 144.211 105.892 144.242 106.004 144.278 106.089 144.321 106.175 144.364 106.238 144.415 106.28 144.476 106.321 144.536 106.342 144.609 106.342 144.696 106.342 144.84 106.284 144.956 106.169 145.043 106.053 145.13 105.903 145.174 105.719 145.174 105.59 145.174 105.475 145.151 105.375 145.105 105.276 145.059 105.198 144.996 105.142 144.913 105.085 144.831 105.057 144.742 105.057 144.647L105.333 144.647C105.338 144.739 105.375 144.813 105.444 144.867 105.513 144.921 105.605 144.948 105.719 144.948 105.823 144.948 105.907 144.927 105.97 144.884 106.033 144.843 106.065 144.786 106.065 144.715ZM107.076 143.136 107.076 143.527 107.378 143.527 107.378 143.741 107.076 143.741 107.076 144.745C107.076 144.809 107.089 144.858 107.116 144.89 107.143 144.923 107.189 144.939 107.254 144.939 107.286 144.939 107.329 144.933 107.385 144.921L107.385 145.144C107.312 145.164 107.242 145.174 107.173 145.174 107.05 145.174 106.956 145.137 106.894 145.062 106.831 144.987 106.8 144.881 106.8 144.744L106.8 143.741 106.506 143.741 106.506 143.527 106.8 143.527 106.8 143.136 107.076 143.136ZM107.702 143.099C107.702 143.054 107.716 143.016 107.743 142.985 107.77 142.954 107.811 142.939 107.864 142.939 107.918 142.939 107.959 142.954 107.987 142.985 108.015 143.016 108.029 143.054 108.029 143.099 108.029 143.144 108.015 143.181 107.987 143.21 107.959 143.24 107.918 143.256 107.864 143.256 107.811 143.256 107.77 143.24 107.743 143.21 107.716 143.181 107.702 143.144 107.702 143.099ZM108.001 145.144 107.724 145.144 107.724 143.527 108.001 143.527 108.001 145.144ZM108.818 143.136 108.818 143.527 109.12 143.527 109.12 143.741 108.818 143.741 108.818 144.745C108.818 144.809 108.831 144.858 108.858 144.89 108.885 144.923 108.931 144.939 108.995 144.939 109.027 144.939 109.071 144.933 109.127 144.921L109.127 145.144C109.054 145.164 108.984 145.174 108.915 145.174 108.792 145.174 108.698 145.137 108.635 145.062 108.573 144.987 108.542 144.881 108.542 144.744L108.542 143.741 108.247 143.741 108.247 143.527 108.542 143.527 108.542 143.136 108.818 143.136ZM110.44 144.984C110.333 145.11 110.175 145.174 109.967 145.174 109.794 145.174 109.663 145.124 109.573 145.024 109.483 144.924 109.438 144.776 109.436 144.579L109.436 143.527 109.713 143.527 109.713 144.572C109.713 144.817 109.812 144.939 110.012 144.939 110.223 144.939 110.363 144.861 110.433 144.703L110.433 143.527 110.709 143.527 110.709 145.144 110.446 145.144 110.44 144.984ZM111.504 143.136 111.504 143.527 111.806 143.527 111.806 143.741 111.504 143.741 111.504 144.745C111.504 144.809 111.517 144.858 111.544 144.89 111.571 144.923 111.617 144.939 111.682 144.939 111.714 144.939 111.757 144.933 111.813 144.921L111.813 145.144C111.74 145.164 111.67 145.174 111.601 145.174 111.478 145.174 111.384 145.137 111.322 145.062 111.259 144.987 111.228 144.881 111.228 144.744L111.228 143.741 110.934 143.741 110.934 143.527 111.228 143.527 111.228 143.136 111.504 143.136ZM113.022 145.144 113.022 143.741 112.766 143.741 112.766 143.527 113.022 143.527 113.022 143.362C113.022 143.188 113.068 143.055 113.161 142.96 113.253 142.865 113.384 142.818 113.553 142.818 113.617 142.818 113.681 142.826 113.743 142.843L113.728 143.066C113.682 143.057 113.632 143.052 113.579 143.052 113.489 143.052 113.42 143.078 113.372 143.131 113.323 143.183 113.298 143.258 113.298 143.356L113.298 143.527 113.643 143.527 113.643 143.741 113.298 143.741 113.298 145.144 113.022 145.144ZM114.946 144.984C114.838 145.11 114.681 145.174 114.472 145.174 114.3 145.174 114.169 145.124 114.079 145.024 113.988 144.924 113.943 144.776 113.942 144.579L113.942 143.527 114.218 143.527 114.218 144.572C114.218 144.817 114.318 144.939 114.517 144.939 114.728 144.939 114.869 144.861 114.938 144.703L114.938 143.527 115.215 143.527 115.215 145.144 114.952 145.144 114.946 144.984ZM114.105 143.095C114.105 143.05 114.118 143.012 114.146 142.981 114.173 142.951 114.214 142.935 114.268 142.935 114.321 142.935 114.362 142.951 114.39 142.981 114.418 143.012 114.431 143.05 114.431 143.095 114.431 143.14 114.418 143.177 114.39 143.207 114.362 143.238 114.321 143.252 114.268 143.252 114.214 143.252 114.173 143.238 114.146 143.207 114.118 143.178 114.105 143.14 114.105 143.095ZM114.747 143.098C114.747 143.053 114.761 143.015 114.788 142.984 114.816 142.953 114.856 142.937 114.91 142.937 114.963 142.937 115.005 142.953 115.032 142.984 115.06 143.015 115.074 143.053 115.074 143.098 115.074 143.143 115.06 143.181 115.032 143.21 115.005 143.24 114.963 143.256 114.91 143.256 114.856 143.256 114.816 143.24 114.788 143.21 114.761 143.181 114.747 143.143 114.747 143.098ZM116.416 143.775C116.374 143.768 116.329 143.765 116.28 143.765 116.099 143.765 115.975 143.842 115.911 143.997L115.911 145.144 115.635 145.144 115.635 143.527 115.904 143.527 115.908 143.714C115.999 143.57 116.127 143.497 116.294 143.497 116.348 143.497 116.388 143.505 116.416 143.519L116.416 143.775ZM118.67 144.183 117.757 144.183 117.757 145.144 117.471 145.144 117.471 142.969 118.818 142.969 118.818 143.203 117.757 143.203 117.757 143.949 118.67 143.949 118.67 144.183ZM120.065 145.144C120.049 145.112 120.036 145.055 120.027 144.973 119.898 145.107 119.745 145.174 119.566 145.174 119.407 145.174 119.276 145.129 119.174 145.039 119.072 144.949 119.021 144.834 119.021 144.696 119.021 144.527 119.085 144.397 119.213 144.304 119.341 144.211 119.521 144.164 119.753 144.164L120.022 144.164 120.022 144.037C120.022 143.941 119.993 143.864 119.935 143.806 119.877 143.749 119.792 143.72 119.68 143.72 119.581 143.72 119.499 143.745 119.432 143.795 119.365 143.845 119.332 143.905 119.332 143.976L119.054 143.976C119.054 143.895 119.083 143.817 119.14 143.742 119.197 143.667 119.275 143.607 119.373 143.563 119.472 143.52 119.579 143.498 119.696 143.498 119.883 143.498 120.029 143.545 120.134 143.638 120.24 143.731 120.295 143.859 120.299 144.022L120.299 144.766C120.299 144.915 120.318 145.033 120.355 145.12L120.355 145.144 120.065 145.144ZM119.607 144.933C119.694 144.933 119.776 144.911 119.854 144.866 119.931 144.821 119.987 144.763 120.022 144.691L120.022 144.359 119.806 144.359C119.467 144.359 119.298 144.459 119.298 144.657 119.298 144.744 119.327 144.811 119.384 144.86 119.442 144.909 119.516 144.933 119.607 144.933ZM121.008 143.723C121.13 143.573 121.29 143.497 121.486 143.497 121.828 143.497 122 143.69 122.003 144.076L122.003 145.144 121.727 145.144 121.727 144.075C121.726 143.958 121.699 143.872 121.647 143.816 121.595 143.76 121.513 143.732 121.403 143.732 121.313 143.732 121.234 143.756 121.166 143.804 121.099 143.852 121.046 143.915 121.008 143.992L121.008 145.144 120.732 145.144 120.732 142.85 121.008 142.85 121.008 143.723ZM123.198 143.775C123.156 143.768 123.111 143.765 123.062 143.765 122.881 143.765 122.758 143.842 122.693 143.997L122.693 145.144 122.417 145.144 122.417 143.527 122.686 143.527 122.69 143.714C122.781 143.57 122.91 143.497 123.076 143.497 123.13 143.497 123.17 143.505 123.198 143.519L123.198 143.775ZM123.712 144.918 124.658 144.918 124.658 145.144 123.375 145.144 123.375 144.941 124.266 143.756 123.388 143.756 123.388 143.527 124.613 143.527 124.613 143.723 123.712 144.918ZM125.615 145.174C125.396 145.174 125.217 145.102 125.08 144.958 124.943 144.814 124.874 144.622 124.874 144.381L124.874 144.33C124.874 144.169 124.905 144.026 124.966 143.901 125.028 143.774 125.113 143.676 125.223 143.604 125.333 143.533 125.453 143.498 125.581 143.498 125.791 143.498 125.955 143.567 126.071 143.705 126.187 143.844 126.246 144.042 126.246 144.3L126.246 144.415 125.151 144.415C125.155 144.575 125.201 144.704 125.291 144.801 125.38 144.899 125.493 144.949 125.63 144.949 125.728 144.949 125.811 144.929 125.878 144.889 125.946 144.849 126.005 144.796 126.056 144.73L126.225 144.862C126.089 145.07 125.886 145.174 125.615 145.174ZM125.581 143.724C125.469 143.724 125.376 143.765 125.3 143.847 125.224 143.927 125.178 144.041 125.16 144.188L125.969 144.188 125.969 144.166C125.962 144.026 125.924 143.918 125.856 143.84 125.788 143.763 125.696 143.724 125.581 143.724ZM127.563 144.984C127.456 145.11 127.298 145.174 127.089 145.174 126.917 145.174 126.786 145.124 126.696 145.024 126.606 144.924 126.56 144.776 126.56 144.579L126.56 143.527 126.836 143.527 126.836 144.572C126.836 144.817 126.936 144.939 127.135 144.939 127.346 144.939 127.486 144.861 127.556 144.703L127.556 143.527 127.832 143.527 127.832 145.144 127.569 145.144 127.563 144.984ZM128.186 144.322C128.186 144.071 128.245 143.87 128.361 143.721 128.478 143.572 128.632 143.497 128.824 143.497 129.021 143.497 129.175 143.567 129.286 143.706L129.299 143.527 129.551 143.527 129.551 145.105C129.551 145.314 129.489 145.479 129.365 145.6 129.241 145.72 129.075 145.78 128.866 145.78 128.749 145.78 128.635 145.756 128.523 145.706 128.412 145.656 128.327 145.587 128.268 145.501L128.412 145.335C128.53 145.481 128.675 145.555 128.846 145.555 128.981 145.555 129.085 145.517 129.16 145.441 129.236 145.365 129.273 145.259 129.273 145.122L129.273 144.983C129.163 145.11 129.012 145.174 128.82 145.174 128.631 145.174 128.478 145.098 128.361 144.946 128.245 144.793 128.186 144.585 128.186 144.322ZM128.464 144.354C128.464 144.536 128.501 144.679 128.576 144.783 128.651 144.887 128.755 144.939 128.89 144.939 129.064 144.939 129.192 144.86 129.274 144.702L129.274 143.964C129.189 143.81 129.062 143.732 128.893 143.732 128.758 143.732 128.653 143.784 128.577 143.889 128.502 143.993 128.464 144.148 128.464 144.354ZM130.343 143.136 130.343 143.527 130.645 143.527 130.645 143.741 130.343 143.741 130.343 144.745C130.343 144.809 130.357 144.858 130.384 144.89 130.41 144.923 130.456 144.939 130.521 144.939 130.553 144.939 130.597 144.933 130.653 144.921L130.653 145.144C130.58 145.164 130.509 145.174 130.44 145.174 130.317 145.174 130.224 145.137 130.161 145.062 130.099 144.987 130.067 144.881 130.067 144.744L130.067 143.741 129.773 143.741 129.773 143.527 130.067 143.527 130.067 143.136 130.343 143.136ZM131.639 145.174C131.419 145.174 131.241 145.102 131.104 144.958 130.966 144.814 130.898 144.622 130.898 144.381L130.898 144.33C130.898 144.169 130.928 144.026 130.99 143.901 131.051 143.774 131.136 143.676 131.247 143.604 131.357 143.533 131.476 143.498 131.605 143.498 131.815 143.498 131.978 143.567 132.094 143.705 132.211 143.844 132.269 144.042 132.269 144.3L132.269 144.415 131.174 144.415C131.178 144.575 131.225 144.704 131.314 144.801 131.403 144.899 131.516 144.949 131.654 144.949 131.751 144.949 131.834 144.929 131.902 144.889 131.969 144.849 132.028 144.796 132.079 144.73L132.248 144.862C132.113 145.07 131.91 145.174 131.639 145.174ZM131.604 143.724C131.493 143.724 131.399 143.765 131.323 143.847 131.248 143.927 131.201 144.041 131.183 144.188L131.993 144.188 131.993 144.166C131.985 144.026 131.947 143.918 131.879 143.84 131.811 143.763 131.72 143.724 131.604 143.724ZM133.237 144.948C133.336 144.948 133.422 144.918 133.495 144.859 133.569 144.799 133.61 144.724 133.618 144.635L133.879 144.635C133.874 144.727 133.842 144.815 133.784 144.899 133.725 144.983 133.647 145.049 133.548 145.099 133.45 145.148 133.346 145.174 133.237 145.174 133.017 145.174 132.842 145.1 132.712 144.954 132.582 144.807 132.517 144.606 132.517 144.351L132.517 144.304C132.517 144.147 132.546 144.007 132.604 143.885 132.661 143.763 132.744 143.667 132.853 143.599 132.96 143.532 133.088 143.498 133.236 143.498 133.417 143.498 133.568 143.552 133.688 143.661 133.807 143.769 133.872 143.91 133.879 144.083L133.618 144.083C133.61 143.979 133.57 143.892 133.499 143.825 133.428 143.758 133.34 143.724 133.235 143.724 133.095 143.724 132.986 143.775 132.909 143.876 132.831 143.977 132.793 144.124 132.793 144.315L132.793 144.367C132.793 144.553 132.831 144.696 132.908 144.797 132.985 144.898 133.095 144.948 133.237 144.948ZM134.467 143.723C134.589 143.573 134.748 143.497 134.945 143.497 135.286 143.497 135.458 143.69 135.462 144.076L135.462 145.144 135.185 145.144 135.185 144.075C135.184 143.958 135.158 143.872 135.106 143.816 135.053 143.76 134.972 143.732 134.861 143.732 134.771 143.732 134.693 143.756 134.625 143.804 134.558 143.852 134.505 143.915 134.467 143.992L134.467 145.144 134.191 145.144 134.191 142.85 134.467 142.85 134.467 143.723ZM136.137 143.527 136.146 143.731C136.269 143.575 136.43 143.497 136.63 143.497 136.971 143.497 137.144 143.69 137.147 144.076L137.147 145.144 136.87 145.144 136.87 144.075C136.87 143.958 136.843 143.872 136.791 143.816 136.738 143.76 136.657 143.732 136.546 143.732 136.457 143.732 136.378 143.756 136.31 143.804 136.243 143.852 136.19 143.915 136.152 143.992L136.152 145.144 135.876 145.144 135.876 143.528 136.137 143.528ZM137.565 143.099C137.565 143.054 137.578 143.016 137.606 142.985 137.633 142.954 137.674 142.939 137.728 142.939 137.781 142.939 137.822 142.954 137.85 142.985 137.878 143.016 137.891 143.054 137.891 143.099 137.891 143.144 137.878 143.181 137.85 143.21 137.822 143.24 137.781 143.256 137.728 143.256 137.674 143.256 137.633 143.24 137.606 143.21 137.578 143.181 137.565 143.144 137.565 143.099ZM137.864 145.144 137.587 145.144 137.587 143.527 137.864 143.527 137.864 145.144ZM138.757 144.396 138.584 144.576 138.584 145.144 138.307 145.144 138.307 142.849 138.584 142.849 138.584 144.237 138.732 144.059 139.235 143.528 139.571 143.528 138.942 144.203 139.644 145.144 139.32 145.144 138.757 144.396ZM104.289 148.204 104.105 148.204 102.854 146.342 102.854 148.204 102.669 148.204 102.669 146.029 102.854 146.029 104.106 147.891 104.106 146.029 104.289 146.029 104.289 148.204ZM105.839 147.999C105.732 148.155 105.56 148.233 105.324 148.233 105.151 148.233 105.02 148.183 104.931 148.083 104.841 147.983 104.796 147.835 104.793 147.638L104.793 146.586 104.971 146.586 104.971 147.616C104.971 147.923 105.096 148.077 105.345 148.077 105.604 148.077 105.767 147.97 105.836 147.756L105.836 146.586 106.016 146.586 106.016 148.203 105.842 148.203 105.839 147.999ZM104.976 146.118C104.976 146.084 104.987 146.055 105.009 146.032 105.03 146.009 105.06 145.997 105.098 145.997 105.136 145.997 105.167 146.008 105.189 146.032 105.211 146.055 105.223 146.084 105.223 146.118 105.223 146.151 105.212 146.179 105.189 146.202 105.167 146.224 105.136 146.236 105.098 146.236 105.06 146.236 105.031 146.224 105.009 146.202 104.987 146.179 104.976 146.151 104.976 146.118ZM105.63 146.119C105.63 146.085 105.641 146.057 105.663 146.034 105.685 146.01 105.715 145.998 105.753 145.998 105.791 145.998 105.82 146.01 105.843 146.034 105.866 146.057 105.877 146.085 105.877 146.119 105.877 146.152 105.866 146.18 105.843 146.203 105.82 146.226 105.791 146.238 105.753 146.238 105.715 146.238 105.685 146.226 105.663 146.203 105.641 146.18 105.63 146.152 105.63 146.119ZM107.227 146.739C107.189 146.732 107.149 146.729 107.106 146.729 106.995 146.729 106.9 146.76 106.823 146.822 106.746 146.885 106.691 146.975 106.658 147.093L106.658 148.204 106.481 148.204 106.481 146.587 106.656 146.587 106.658 146.844C106.753 146.652 106.905 146.557 107.114 146.557 107.164 146.557 107.204 146.564 107.232 146.577L107.227 146.739ZM107.68 146.587 107.686 146.863C107.747 146.764 107.822 146.687 107.913 146.635 108.004 146.583 108.104 146.557 108.213 146.557 108.387 146.557 108.516 146.606 108.6 146.704 108.685 146.801 108.728 146.947 108.729 147.143L108.729 148.204 108.551 148.204 108.551 147.141C108.55 146.997 108.519 146.889 108.459 146.819 108.399 146.748 108.303 146.712 108.17 146.712 108.06 146.712 107.961 146.747 107.876 146.817 107.791 146.886 107.728 146.979 107.687 147.096L107.687 148.204 107.51 148.204 107.51 146.587 107.68 146.587ZM110.491 147.411C110.491 147.664 110.435 147.864 110.324 148.012 110.212 148.159 110.062 148.233 109.874 148.233 109.649 148.233 109.479 148.15 109.363 147.983L109.356 148.204 109.189 148.204 109.189 145.909 109.366 145.909 109.366 146.822C109.48 146.645 109.648 146.557 109.871 146.557 110.063 146.557 110.213 146.63 110.325 146.776 110.435 146.923 110.491 147.125 110.491 147.385L110.491 147.411ZM110.312 147.38C110.312 147.167 110.271 147.003 110.188 146.886 110.105 146.771 109.989 146.712 109.839 146.712 109.724 146.712 109.627 146.741 109.548 146.797 109.468 146.853 109.407 146.935 109.367 147.044L109.367 147.774C109.456 147.977 109.615 148.078 109.842 148.078 109.989 148.078 110.104 148.02 110.188 147.903 110.27 147.786 110.312 147.612 110.312 147.38ZM111.511 148.233C111.374 148.233 111.249 148.199 111.138 148.132 111.028 148.064 110.941 147.97 110.879 147.848 110.818 147.728 110.787 147.592 110.787 147.441L110.787 147.377C110.787 147.222 110.817 147.082 110.877 146.958 110.938 146.834 111.022 146.736 111.129 146.664 111.236 146.593 111.353 146.558 111.478 146.558 111.675 146.558 111.83 146.625 111.945 146.759 112.06 146.893 112.118 147.076 112.118 147.308L112.118 147.408 110.964 147.408 110.964 147.442C110.964 147.625 111.017 147.778 111.122 147.9 111.227 148.022 111.359 148.083 111.519 148.083 111.614 148.083 111.699 148.066 111.772 148.031 111.845 147.996 111.911 147.94 111.971 147.864L112.083 147.949C111.952 148.138 111.762 148.233 111.511 148.233ZM111.479 146.71C111.344 146.71 111.231 146.759 111.139 146.857 111.047 146.956 110.991 147.089 110.971 147.255L111.94 147.255 111.94 147.235C111.936 147.08 111.891 146.953 111.807 146.856 111.724 146.758 111.614 146.71 111.479 146.71ZM113.213 146.739C113.175 146.732 113.135 146.729 113.092 146.729 112.981 146.729 112.886 146.76 112.809 146.822 112.731 146.885 112.677 146.975 112.644 147.093L112.644 148.204 112.466 148.204 112.466 146.587 112.641 146.587 112.644 146.844C112.739 146.652 112.891 146.557 113.1 146.557 113.15 146.557 113.189 146.564 113.218 146.577L113.213 146.739ZM113.395 147.38C113.395 147.127 113.451 146.927 113.563 146.779 113.675 146.631 113.827 146.557 114.019 146.557 114.24 146.557 114.407 146.645 114.522 146.82L114.531 146.586 114.698 146.586 114.698 148.17C114.698 148.378 114.64 148.543 114.523 148.665 114.406 148.786 114.248 148.847 114.049 148.847 113.937 148.847 113.829 148.822 113.727 148.771 113.625 148.721 113.545 148.654 113.486 148.57L113.586 148.463C113.712 148.618 113.863 148.696 114.037 148.696 114.186 148.696 114.303 148.652 114.387 148.564 114.471 148.475 114.514 148.353 114.517 148.197L114.517 147.994C114.402 148.153 114.236 148.233 114.016 148.233 113.829 148.233 113.679 148.158 113.565 148.008 113.451 147.859 113.395 147.658 113.395 147.404L113.395 147.38ZM113.576 147.411C113.576 147.618 113.617 147.781 113.7 147.9 113.782 148.019 113.899 148.078 114.049 148.078 114.269 148.078 114.425 147.979 114.517 147.782L114.517 147.031C114.475 146.927 114.415 146.849 114.336 146.794 114.258 146.74 114.163 146.713 114.052 146.713 113.902 146.713 113.785 146.772 113.701 146.89 113.618 147.008 113.576 147.182 113.576 147.411Z" fill="#FFFFFF" transform="matrix(1.00749 0 0 1 537.896 217.162)"/></g></svg>