<svg id="Ebene_1" data-name="Ebene 1" xmlns="http://www.w3.org/2000/svg" viewBox="0 0 215 198.4"><defs><style>.cls-1{fill:none;stroke:#010101;stroke-linecap:round;stroke-linejoin:round;stroke-width:15px;}</style></defs><path class="cls-1" d="M200,180.35H40A36.17,36.17,0,0,0,60,148V110.35a60,60,0,0,1,60-60h0a60,60,0,0,1,60,60V148a36.17,36.17,0,0,0,20,32.36Z" transform="translate(-12.5 -20.8)"/><path class="cls-1" d="M105.49,200.35a14.94,14.94,0,0,0,29,0" transform="translate(-12.5 -20.8)"/><path class="cls-1" d="M40,110.34A79.89,79.89,0,0,1,79.12,41.66" transform="translate(-12.5 -20.8)"/><path class="cls-1" d="M62.91,28.3a99.82,99.82,0,0,0-42.91,82" transform="translate(-12.5 -20.8)"/><path class="cls-1" d="M160.88,41.66A79.89,79.89,0,0,1,200,110.34" transform="translate(-12.5 -20.8)"/><path class="cls-1" d="M220,110.34a99.85,99.85,0,0,0-42.91-82" transform="translate(-12.5 -20.8)"/><line class="cls-1" x1="107.49" y1="29.55" x2="107.49" y2="14.69"/></svg>