<svg id="Layer_1" data-name="Layer 1" xmlns="http://www.w3.org/2000/svg" viewBox="0 0 850 889.51"><defs><style>.cls-1{fill:#fff;}</style></defs><path class="cls-1" d="M916.32,194.23,785,55.24H148.62C108,55.24,75,89.81,75,132.3V867.7c0,42.49,33,77.06,73.62,77.06H851.37c40.6,0,73.63-34.57,73.63-77.06V216.14A31.75,31.75,0,0,0,916.32,194.23ZM759.39,485H240.61c-28.13,0-51,23.83-51,53.11V914.77h-41c-24.06,0-43.63-21.12-43.63-47.07V132.3c0-26,19.57-47.07,43.63-47.07h41v261c0,25.14,19.7,45.6,43.9,45.6H685.69c24.21,0,43.9-20.46,43.9-45.6v-261H772.1L894.51,214.81a1.86,1.86,0,0,1,.5,1.33V867.7c0,25.95-19.57,47.07-43.64,47.07h-41V538.06C810.4,508.78,787.52,485,759.39,485Zm-539.8,53.11c0-12.75,9.43-23.12,21-23.12H759.39c11.59,0,21,10.37,21,23.12V914.77H219.59Zm480-191.83c0,8.61-6.24,15.61-13.91,15.61H233.5c-7.67,0-13.91-7-13.91-15.61v-261h480Z" transform="translate(-75 -55.24)"/><path class="cls-1" d="M567.11,337.78h78A13.82,13.82,0,0,0,658.92,324V123.1a13.82,13.82,0,0,0-13.81-13.81h-78A13.82,13.82,0,0,0,553.3,123.1V324A13.82,13.82,0,0,0,567.11,337.78Zm61.82-198.51V307.8H583.29V139.27Z" transform="translate(-75 -55.24)"/><path class="cls-1" d="M734.34,619.9H265.67a15,15,0,1,0,0,30H734.34a15,15,0,0,0,0-30Z" transform="translate(-75 -55.24)"/><path class="cls-1" d="M734.34,707.35H265.67a15,15,0,1,0,0,30H734.34a15,15,0,0,0,0-30Z" transform="translate(-75 -55.24)"/><path class="cls-1" d="M734.34,794.81H265.67a15,15,0,1,0,0,30H734.34a15,15,0,0,0,0-30Z" transform="translate(-75 -55.24)"/></svg>