<svg id="Ebene_1" data-name="Ebene 1" xmlns="http://www.w3.org/2000/svg" viewBox="0 0 208 184.23"><defs><style>.cls-1{fill:none;stroke:#fff;stroke-linecap:round;stroke-linejoin:round;stroke-width:8px;}</style></defs><path class="cls-1" d="M119.77,173.93H32a11.48,11.48,0,0,1-11.48-11.49V55.35A11.48,11.48,0,0,1,32,43.87h11.8" transform="translate(-16.55 -24.03)"/><path class="cls-1" d="M178.08,43.87H190a11.48,11.48,0,0,1,11.48,11.48V93.43" transform="translate(-16.55 -24.03)"/><line class="cls-1" x1="38.33" y1="19.83" x2="150.43" y2="19.83"/><line class="cls-1" x1="4.67" y1="43.99" x2="184.22" y2="43.99"/><path class="cls-1" d="M103.87,92.18h12.66a1.59,1.59,0,0,0,1.59-1.59V85.17" transform="translate(-16.55 -24.03)"/><path class="cls-1" d="M134.75,92.18H147.4A1.59,1.59,0,0,0,149,90.59V85.17" transform="translate(-16.55 -24.03)"/><path class="cls-1" d="M165.62,92.18h12.65a1.59,1.59,0,0,0,1.59-1.59V85.17" transform="translate(-16.55 -24.03)"/><path class="cls-1" d="M42.13,112.58H54.79A1.59,1.59,0,0,0,56.38,111v-5.42" transform="translate(-16.55 -24.03)"/><path class="cls-1" d="M73,112.58H85.66A1.59,1.59,0,0,0,87.25,111v-5.42" transform="translate(-16.55 -24.03)"/><path class="cls-1" d="M103.87,112.58h12.66a1.59,1.59,0,0,0,1.59-1.59v-5.42" transform="translate(-16.55 -24.03)"/><path class="cls-1" d="M42.13,133H54.79a1.6,1.6,0,0,0,1.59-1.6V126" transform="translate(-16.55 -24.03)"/><path class="cls-1" d="M73,133H85.66a1.6,1.6,0,0,0,1.59-1.6V126" transform="translate(-16.55 -24.03)"/><path class="cls-1" d="M103.87,133h12.66a1.6,1.6,0,0,0,1.59-1.6V126" transform="translate(-16.55 -24.03)"/><path class="cls-1" d="M42.13,153.39H54.79a1.59,1.59,0,0,0,1.59-1.59v-5.42" transform="translate(-16.55 -24.03)"/><path class="cls-1" d="M73,153.39H85.66a1.59,1.59,0,0,0,1.59-1.59v-5.42" transform="translate(-16.55 -24.03)"/><path class="cls-1" d="M103.87,153.39h12.66a1.59,1.59,0,0,0,1.59-1.59v-5.42" transform="translate(-16.55 -24.03)"/><path class="cls-1" d="M56.8,34.16a6.12,6.12,0,1,0-12.24,0V50.52" transform="translate(-16.55 -24.03)"/><path class="cls-1" d="M179.23,34.16a6.13,6.13,0,1,0-12.25,0V50.52" transform="translate(-16.55 -24.03)"/><path class="cls-1" d="M145.54,105.12h60.91a14.1,14.1,0,0,1,14.1,14.1v49.1a14.1,14.1,0,0,1-14.1,14.1h-6.36a1.72,1.72,0,0,0-1.72,1.72v18.4a1.72,1.72,0,0,1-2.93,1.22l-20.83-20.83a1.73,1.73,0,0,0-1.21-.51H145.54a14.1,14.1,0,0,1-14.1-14.1v-49.1A14.1,14.1,0,0,1,145.54,105.12Z" transform="translate(-16.55 -24.03)"/><path class="cls-1" d="M180.4,121.9a19,19,0,0,0-20.7-4.14l-.48.2-.37.37,9,9-.57,8.37-8.37.57-9-9-.37.36-.2.48a19,19,0,0,0,4.14,20.7c4.43,4.42,12.35,4.77,18.7,3.41l17.86,17.86a8.22,8.22,0,1,0,11.62-11.62L183.81,140.6C185.17,134.25,184.82,126.33,180.4,121.9Z" transform="translate(-16.55 -24.03)"/></svg>