<svg width="133" height="102" xmlns="http://www.w3.org/2000/svg" xmlns:xlink="http://www.w3.org/1999/xlink" xml:space="preserve" overflow="hidden"><defs><clipPath id="clip0"><rect x="307" y="419" width="133" height="102"/></clipPath></defs><g clip-path="url(#clip0)" transform="translate(-307 -419)"><path d="M114.606 8.52065 18.2928 8.52065C15.5333 8.52065 13.2891 10.7648 13.2891 13.5244L13.2891 75.065C13.2891 77.8246 15.5333 80.0687 18.2928 80.0687L65.6188 80.0687 65.6188 96.1398 38.9817 96.1391 38.9817 97.8003 93.9191 97.8003 93.9191 96.1391 67.2801 96.1391 67.2801 80.068 114.606 80.068C117.366 80.068 119.61 77.8238 119.61 75.0642L119.61 13.5236C119.61 10.764 117.366 8.51991 114.606 8.51991ZM117.948 75.066C117.948 76.9081 116.45 78.4084 114.606 78.4084L18.2928 78.4084C16.4484 78.4061 14.9504 76.9081 14.9504 75.066L14.9504 13.5253C14.9504 11.6831 16.4485 10.1829 18.2928 10.1829L114.608 10.1829C116.451 10.1829 117.949 11.681 117.949 13.5253Z" stroke="#FFFFFF" stroke-width="6.04094" fill="#FFFFFF" transform="matrix(1.00075 0 0 1 307 419)"/><path d="M93.9191 53.1983C92.6398 53.1983 91.4591 53.6017 90.4817 54.281L83.586 47.9979C84.8921 46.4813 85.7107 44.5345 85.7107 42.3815 85.7107 37.6105 81.8283 33.7281 77.0574 33.7281 73.9707 33.7281 71.2764 35.3641 69.7448 37.8034L55.2036 32.3065C55.2533 31.8762 55.2865 31.4409 55.2865 30.9961 55.2865 24.8346 50.2731 19.8212 44.1117 19.8212 37.9502 19.8212 32.937 24.8346 32.937 30.9961 32.937 37.1575 37.9502 42.1709 44.1117 42.1709 45.0387 42.1709 45.9339 42.0449 46.7949 41.832L50.935 53.9873C48.3212 55.2429 46.4991 57.8942 46.4991 60.9832 46.4991 65.2757 49.9908 68.7682 54.2841 68.7682 56.9956 68.7682 59.3806 67.3708 60.7751 65.2647L89.4872 63.3246C90.5939 64.5273 92.1638 65.2951 93.923 65.2951 97.2573 65.2951 99.9681 62.5822 99.9681 59.2477 99.9674 55.9127 97.2543 53.1983 93.92 53.1983ZM77.0574 35.3909C80.9132 35.3909 84.0495 38.5274 84.0495 42.383 84.0495 46.2388 80.913 49.3751 77.0574 49.3751 73.2015 49.3751 70.0638 46.2386 70.0638 42.383 70.0638 38.5272 73.2002 35.3909 77.0574 35.3909ZM34.5975 30.9953C34.5975 25.749 38.8655 21.4817 44.1111 21.4817 49.3574 21.4817 53.6247 25.7497 53.6247 30.9953 53.6247 36.2417 49.3567 40.5089 44.1111 40.5089 38.8655 40.5089 34.5975 36.2415 34.5975 30.9953ZM48.3747 41.3219C51.5326 40.0128 53.9549 37.2963 54.8751 33.959L68.9958 39.2965C68.625 40.2583 68.4025 41.2915 68.4025 42.3817 68.4025 44.292 69.0456 46.0431 70.0972 47.4752L59.7157 55.4225C58.3102 54.0504 56.3962 53.196 54.2818 53.196 53.664 53.196 53.0707 53.2858 52.496 53.4221ZM54.2818 67.1065C50.9044 67.1065 48.1581 64.3602 48.1581 60.9828 48.1581 57.6055 50.9044 54.8592 54.2818 54.8592 57.6577 54.8592 60.4055 57.6055 60.4055 60.9828 60.4055 64.3602 57.6577 67.1065 54.2818 67.1065ZM61.5995 63.54C61.882 62.7362 62.066 61.8839 62.066 60.9836 62.066 59.404 61.5862 57.9354 60.7755 56.7074L71.208 48.7201C72.7514 50.1455 74.796 51.0377 77.0574 51.0377 79.0761 51.0377 80.9102 50.3153 82.3831 49.1524L89.2706 55.4266C88.4103 56.4716 87.8734 57.7909 87.8734 59.246 87.8734 60.133 88.0758 60.9703 88.4213 61.7297ZM93.9191 63.6312C91.5022 63.6312 89.533 61.6629 89.533 59.2451 89.533 56.8282 91.5012 54.859 93.9191 54.859 96.336 54.859 98.3029 56.8272 98.3029 59.2451 98.3036 61.662 96.3369 63.6312 93.9191 63.6312Z" stroke="#FFFFFF" stroke-width="6.04094" fill="#FFFFFF" transform="matrix(1.00075 0 0 1 307 419)"/><path d="M5.56512-0.332252C5.27812-0.183925 4.9785-0.0719373 4.66626 0.00296179 4.35552 0.0800917 4.03217 0.118658 3.6962 0.118658 2.68758 0.118658 1.88736-0.163168 1.2962-0.7268 0.706595-1.29045 0.412182-2.0558 0.412182-3.02294 0.412182-3.99008 0.706614-4.7554 1.2962-5.31909 1.88729-5.88274 2.6875-6.16454 3.6962-6.16454 4.03215-6.16454 4.35552-6.12673 4.66626-6.05183 4.97848-5.97617 5.27812-5.86345 5.56512-5.71365L5.56512-4.46176C5.27441-4.65905 4.98813-4.80366 4.7078-4.89487 4.42672-4.98758 4.1308-5.0343 3.8208-5.0343 3.26309-5.0343 2.82479-4.85481 2.50662-4.49736 2.18772-4.14138 2.02901-3.64968 2.02901-3.02298 2.02901-2.39778 2.18772-1.90608 2.50662-1.54863 2.82479-1.19264 3.26309-1.01465 3.8208-1.01465 4.1308-1.01465 4.42672-1.05989 4.7078-1.15111 4.98815-1.24381 5.27441-1.38917 5.56512-1.5872Z" stroke="#FFFFFF" stroke-width="6.04094" fill="#FFFFFF" transform="matrix(1.00075 0 0 1 320.3 550.24)"/><path d="M4.07303-3.30467C3.94398-3.364 3.81642-3.40703 3.69035-3.4352 3.56577-3.46487 3.43968-3.4797 3.3136-3.4797 2.9398-3.4797 2.65205-3.35956 2.45033-3.12076 2.25009-2.88121 2.15071-2.53783 2.15071-2.09136L2.15071 0.000117712 0.697121 0.000117712 0.697121-4.54167 2.15071-4.54167 2.15071-3.79707C2.33613-4.09372 2.54972-4.31028 2.79149-4.44675 3.03473-4.5832 3.32546-4.65143 3.66366-4.65143 3.71112-4.65143 3.76303-4.64921 3.82088-4.64549 3.87799-4.64105 3.96031-4.63214 4.06711-4.61879Z" stroke="#FFFFFF" stroke-width="6.04094" fill="#FFFFFF" transform="matrix(1.00075 0 0 1 326.401 550.24)"/><path d="M5.23287-2.28418 5.23287-1.86887 1.83612-1.86887C1.87172-1.52845 1.99408-1.27334 2.20397-1.10351 2.41534-0.932937 2.71125-0.848382 3.09097-0.848382 3.39504-0.848382 3.70801-0.89288 4.02839-0.981875 4.34878-1.07235 4.67807-1.21029 5.01624-1.39423L5.01624-0.275849C4.67361-0.145321 4.33097-0.0474304 3.98685 0.0178429 3.64273 0.0845894 3.29936 0.118705 2.95746 0.118705 2.13425 0.118705 1.49496-0.0897023 1.03818-0.507239 0.582827-0.926256 0.35587-1.5129 0.35587-2.26639 0.35587-3.00802 0.579106-3.59022 1.0263-4.01368 1.47499-4.43864 2.09129-4.65149 2.87445-4.65149 3.5879-4.65149 4.1597-4.43568 4.5891-4.00479 5.01776-3.57539 5.23283-3.00211 5.23283-2.2842ZM3.7407-2.76475C3.7407-3.04138 3.65912-3.26387 3.49745-3.43222 3.33727-3.60205 3.12738-3.68735 2.86855-3.68735 2.58524-3.68735 2.35608-3.60799 2.18031-3.45003 2.00602-3.29133 1.89701-3.06289 1.85398-2.76475Z" stroke="#FFFFFF" stroke-width="6.04094" fill="#FFFFFF" transform="matrix(1.00075 0 0 1 330.5 550.24)"/><path d="M2.73225-2.04401C2.42965-2.04401 2.20198-1.99211 2.04994-1.88975 1.89716-1.78667 1.82152-1.63538 1.82152-1.43588 1.82152-1.25195 1.88233-1.10733 2.00543-1.00277 2.12782-0.899687 2.29913-0.848514 2.51866-0.848514 2.79158-0.848514 3.02072-0.946409 3.20688-1.14221 3.39451-1.33799 3.48872-1.58273 3.48872-1.87791L3.48872-2.04403ZM4.95131-2.59282 4.95131-0.000113915 3.48882-0.000113915 3.48882-0.673522C3.29303-0.39838 3.0735-0.197396 2.83024-0.0713108 2.58697 0.0547741 2.29108 0.118547 1.94324 0.118547 1.47229 0.118547 1.08962-0.0186555 0.795183-0.293806 0.502232-0.568208 0.356136-0.924192 0.356136-1.36176 0.356136-1.89573 0.538578-2.28584 0.90494-2.53354 1.27279-2.78273 1.84831-2.90734 2.63147-2.90734L3.4888-2.90734 3.4888-3.02304C3.4888-3.2522 3.39757-3.42056 3.21588-3.52734 3.03566-3.63413 2.7531-3.68752 2.36744-3.68752 2.0567-3.68752 1.76821-3.65564 1.50121-3.59259 1.23423-3.53104 0.985022-3.43833 0.753642-3.31373L0.753642-4.42024C1.06586-4.49738 1.3781-4.55449 1.69107-4.59231 2.00551-4.63161 2.31849-4.65164 2.63145-4.65164 3.4517-4.65164 4.04352-4.48922 4.40545-4.16513 4.76886-3.84252 4.95129-3.31819 4.95129-2.59288Z" stroke="#FFFFFF" stroke-width="6.04094" fill="#FFFFFF" transform="matrix(1.00075 0 0 1 336.137 550.24)"/><path d="M2.28418-5.83225 2.28418-4.54181 3.77932-4.54181 3.77932-3.50351 2.28418-3.50351 2.28418-1.57816C2.28418-1.36605 2.32573-1.22291 2.40879-1.14802 2.49185-1.07459 2.65798-1.03825 2.90717-1.03825L3.65473-1.03825 3.65473 4.17688e-05 2.40879 4.17688e-05C1.83476 4.17688e-05 1.42833-0.119362 1.18953-0.358904 0.949984-0.597708 0.830582-1.00412 0.830582-1.57815L0.830582-3.50351 0.10971-3.50351 0.10971-4.54181 0.830582-4.54181 0.830582-5.83225Z" stroke="#FFFFFF" stroke-width="6.04094" fill="#FFFFFF" transform="matrix(1.00075 0 0 1 341.747 550.24)"/><path d="M5.23287-2.28418 5.23287-1.86887 1.83612-1.86887C1.87172-1.52845 1.99408-1.27334 2.20397-1.10351 2.41534-0.932937 2.71125-0.848382 3.09097-0.848382 3.39504-0.848382 3.70801-0.89288 4.02839-0.981875 4.34878-1.07235 4.67807-1.21029 5.01624-1.39423L5.01624-0.275849C4.67361-0.145321 4.33097-0.0474304 3.98685 0.0178429 3.64273 0.0845894 3.29936 0.118705 2.95746 0.118705 2.13425 0.118705 1.49496-0.0897023 1.03818-0.507239 0.582827-0.926256 0.35587-1.5129 0.35587-2.26639 0.35587-3.00802 0.579106-3.59022 1.0263-4.01368 1.47499-4.43864 2.09129-4.65149 2.87445-4.65149 3.5879-4.65149 4.1597-4.43568 4.5891-4.00479 5.01776-3.57539 5.23283-3.00211 5.23283-2.2842ZM3.7407-2.76475C3.7407-3.04138 3.65912-3.26387 3.49745-3.43222 3.33727-3.60205 3.12738-3.68735 2.86855-3.68735 2.58524-3.68735 2.35608-3.60799 2.18031-3.45003 2.00602-3.29133 1.89701-3.06289 1.85398-2.76475Z" stroke="#FFFFFF" stroke-width="6.04094" fill="#FFFFFF" transform="matrix(1.00075 0 0 1 345.721 550.24)"/><path d="M3.78824-3.87729 3.78824-6.30975 5.24778-6.30975 5.24778 0 3.78824 0 3.78824-0.655599C3.588-0.388621 3.36774-0.19282 3.1267-0.0682161 2.88493 0.0563784 2.60607 0.118677 2.29015 0.118677 1.73022 0.118677 1.2704-0.103818 0.910712-0.548789 0.552506-0.993779 0.373774-1.56632 0.373774-2.26641 0.373774-2.96652 0.552508-3.53905 0.910712-3.98404 1.2704-4.42903 1.73022-4.65151 2.29015-4.65151 2.60459-4.65151 2.88197-4.58773 3.12374-4.46165 3.36698-4.33706 3.588-4.142 3.78824-3.87725ZM2.83005-0.93752C3.14227-0.93752 3.37959-1.05099 3.54201-1.27868 3.70592-1.50561 3.78824-1.8349 3.78824-2.26653 3.78824-2.69963 3.70592-3.02966 3.54201-3.25736 3.37959-3.4843 3.14227-3.59852 2.83005-3.59852 2.52153-3.59852 2.28494-3.4843 2.12104-3.25736 1.95862-3.02968 1.87779-2.69965 1.87779-2.26653 1.87779-1.8349 1.95863-1.50561 2.12104-1.27868 2.28494-1.051 2.52153-0.93752 2.83005-0.93752Z" stroke="#FFFFFF" stroke-width="6.04094" fill="#FFFFFF" transform="matrix(1.00075 0 0 1 351.358 550.24)"/><path d="M3.11481-0.937425C3.42481-0.937425 3.66214-1.0509 3.82678-1.27858 3.99069-1.50552 4.07301-1.83481 4.07301-2.26643 4.07301-2.69954 3.99069-3.02957 3.82678-3.25726 3.66214-3.4842 3.42481-3.59842 3.11481-3.59842 2.80407-3.59842 2.56601-3.48346 2.39988-3.2543 2.23376-3.02662 2.1507-2.69733 2.1507-2.26645 2.1507-1.83705 2.23376-1.50776 2.39988-1.2786 2.56601-1.05092 2.80407-0.937444 3.11481-0.937444ZM2.1507-3.87719C2.3502-4.14195 2.57195-4.33701 2.8152-4.46159 3.05845-4.58768 3.33805-4.65145 3.65473-4.65145 4.21392-4.65145 4.67374-4.42896 5.03417-3.98398 5.39385-3.539 5.57409-2.96646 5.57409-2.26636 5.57409-1.56625 5.39387-0.993718 5.03417-0.548728 4.67374-0.103739 4.21392 0.118737 3.65473 0.118737 3.33805 0.118737 3.05846 0.0549564 2.8152-0.0711209 2.57193-0.197198 2.3502-0.392247 2.1507-0.655523L2.1507 7.59433e-05 0.697102 7.59433e-05 0.697102-6.30967 2.1507-6.30967Z" stroke="#FFFFFF" stroke-width="6.04094" fill="#FFFFFF" transform="matrix(1.00075 0 0 1 360.202 550.24)"/><path d="M0.100862-4.54179 1.55445-4.54179 2.77371-1.45963 3.81199-4.54179 5.2656-4.54179 3.35523 0.430219C3.16317 0.93602 2.93844 1.28902 2.68184 1.48927 2.42669 1.69099 2.08926 1.79186 1.67025 1.79186L0.830715 1.79186 0.830715 0.83961 1.28459 0.83961C1.53156 0.83961 1.71029 0.799561 1.82153 0.720949 1.93426 0.643819 2.02178 0.502915 2.08554 0.299691L2.12411 0.175097Z" stroke="#FFFFFF" stroke-width="6.04094" fill="#FFFFFF" transform="matrix(1.00075 0 0 1 366.152 550.24)"/><path d="M0.762395-6.05477 2.75002-6.05477 4.12945-2.81541 5.51483-6.05477 7.49942-6.05477 7.49942 0 6.02209 0 6.02209-4.42901 4.62781-1.16288 3.63698-1.16288 2.2427-4.42901 2.2427 0 0.762395 0Z" stroke="#FFFFFF" stroke-width="6.04094" fill="#FFFFFF" transform="matrix(1.00075 0 0 1 374.465 550.24)"/><path d="M5.23287-2.28418 5.23287-1.86887 1.83612-1.86887C1.87172-1.52845 1.99408-1.27334 2.20397-1.10351 2.41534-0.932937 2.71125-0.848382 3.09097-0.848382 3.39504-0.848382 3.70801-0.89288 4.02839-0.981875 4.34878-1.07235 4.67807-1.21029 5.01624-1.39423L5.01624-0.275849C4.67361-0.145321 4.33097-0.0474304 3.98685 0.0178429 3.64273 0.0845894 3.29936 0.118705 2.95746 0.118705 2.13425 0.118705 1.49496-0.0897023 1.03818-0.507239 0.582827-0.926256 0.35587-1.5129 0.35587-2.26639 0.35587-3.00802 0.579106-3.59022 1.0263-4.01368 1.47499-4.43864 2.09129-4.65149 2.87445-4.65149 3.5879-4.65149 4.1597-4.43568 4.5891-4.00479 5.01776-3.57539 5.23283-3.00211 5.23283-2.2842ZM3.7407-2.76475C3.7407-3.04138 3.65912-3.26387 3.49745-3.43222 3.33727-3.60205 3.12738-3.68735 2.86855-3.68735 2.58524-3.68735 2.35608-3.60799 2.18031-3.45003 2.00602-3.29133 1.89701-3.06289 1.85398-2.76475Z" stroke="#FFFFFF" stroke-width="6.04094" fill="#FFFFFF" transform="matrix(1.00075 0 0 1 382.737 550.24)"/><path d="M3.78824-3.87729 3.78824-6.30975 5.24778-6.30975 5.24778 0 3.78824 0 3.78824-0.655599C3.588-0.388621 3.36774-0.19282 3.1267-0.0682161 2.88493 0.0563784 2.60607 0.118677 2.29015 0.118677 1.73022 0.118677 1.2704-0.103818 0.910712-0.548789 0.552506-0.993779 0.373774-1.56632 0.373774-2.26641 0.373774-2.96652 0.552508-3.53905 0.910712-3.98404 1.2704-4.42903 1.73022-4.65151 2.29015-4.65151 2.60459-4.65151 2.88197-4.58773 3.12374-4.46165 3.36698-4.33706 3.588-4.142 3.78824-3.87725ZM2.83005-0.93752C3.14227-0.93752 3.37959-1.05099 3.54201-1.27868 3.70592-1.50561 3.78824-1.8349 3.78824-2.26653 3.78824-2.69963 3.70592-3.02966 3.54201-3.25736 3.37959-3.4843 3.14227-3.59852 2.83005-3.59852 2.52153-3.59852 2.28494-3.4843 2.12104-3.25736 1.95862-3.02968 1.87779-2.69965 1.87779-2.26653 1.87779-1.8349 1.95863-1.50561 2.12104-1.27868 2.28494-1.051 2.52153-0.93752 2.83005-0.93752Z" stroke="#FFFFFF" stroke-width="6.04094" fill="#FFFFFF" transform="matrix(1.00075 0 0 1 388.375 550.24)"/><path d="M0.762395-6.05477 2.75002-6.05477 4.12945-2.81541 5.51483-6.05477 7.49942-6.05477 7.49942 0 6.02209 0 6.02209-4.42901 4.62781-1.16288 3.63698-1.16288 2.2427-4.42901 2.2427 0 0.762395 0Z" stroke="#FFFFFF" stroke-width="6.04094" fill="#FFFFFF" transform="matrix(1.00075 0 0 1 397.219 550.24)"/><path d="M3.18905-3.71116C3.43379-3.71116 3.61993-3.76457 3.74676-3.87136 3.87506-3.97964 3.93958-4.13982 3.93958-4.35191 3.93958-4.5596 3.87506-4.71754 3.74676-4.82656 3.61993-4.93707 3.43379-4.99268 3.18905-4.99268L2.32282-4.99268 2.32282-3.71114ZM3.23947-1.06207C3.55392-1.06207 3.78976-1.12807 3.94848-1.26083 4.10644-1.39284 4.1858-1.59382 4.1858-1.86304 4.1858-2.1241 4.10644-2.31988 3.94848-2.45042 3.792-2.58243 3.55542-2.64919 3.23947-2.64919L2.32282-2.64919 2.32282-1.06209ZM4.69307-3.23955C5.0268-3.1424 5.28637-2.96219 5.47031-2.69963 5.65424-2.43858 5.74619-2.11671 5.74619-1.73551 5.74619-1.15185 5.54817-0.716506 5.15288-0.430238 4.75908-0.143229 4.15983-9.49291e-05 3.35516-9.49291e-05L0.762455-9.49291e-05 0.762455-6.05486 3.10606-6.05486C3.94634-6.05486 4.55521-5.9273 4.93345-5.67219 5.31094-5.41855 5.50006-5.01212 5.50006-4.45293 5.50006-4.15776 5.43034-3.90709 5.29239-3.69943 5.15372-3.49326 4.95422-3.34048 4.69316-3.23961Z" stroke="#FFFFFF" stroke-width="6.04094" fill="#FFFFFF" transform="matrix(1.00075 0 0 1 405.491 550.24)"/></g></svg>