<svg id="Ebene_1" data-name="Ebene 1" xmlns="http://www.w3.org/2000/svg" viewBox="0 0 231.14 231.14"><defs><style>.cls-1,.cls-2{fill:#fff;stroke:#fff;}.cls-1{stroke-linecap:round;stroke-linejoin:round;stroke-width:15px;}.cls-2{stroke-miterlimit:10;}</style></defs><path class="cls-1" d="M129.5,143.54,143.05,130a10.83,10.83,0,0,1,15.3,0h0a10.85,10.85,0,0,1,3.16,7.65v9.94h0a34.83,34.83,0,0,1,24.63,10.2l36.68,36.68a20.39,20.39,0,0,1,0,28.85h0a20.39,20.39,0,0,1-28.85,0l-36.68-36.68A34.83,34.83,0,0,1,147.09,162h-10a10.81,10.81,0,0,1-7.64-3.17h0A10.81,10.81,0,0,1,129.5,143.54Z" transform="translate(-6.36 -6.48)"/><line class="cls-1" x1="130.23" y1="129.98" x2="24.02" y2="23.78"/><path class="cls-2" d="M40.18,30.18l-9.75,9.75a3.1,3.1,0,0,1-4.73-.42L10,17.09l7.21-7.21L39.75,25.43A3.11,3.11,0,0,1,40.18,30.18Z" transform="translate(-6.36 -6.48)"/><path class="cls-1" d="M100.29,122.05,79.41,142.93A45.76,45.76,0,0,0,18.35,204l25.7-25.7a15.3,15.3,0,0,1,21.63,21.64L40,225.64a45.75,45.75,0,0,0,61.05-61l6.36-6.36" transform="translate(-6.36 -6.48)"/><path class="cls-1" d="M158.41,107.21l6-6a45.76,45.76,0,0,0,61.07-61.06l-25.7,25.7a15.3,15.3,0,0,1-21.64-21.64l25.7-25.7a45.75,45.75,0,0,0-61,61.05l-20.9,20.9" transform="translate(-6.36 -6.48)"/></svg>