<svg width="720" height="720" xmlns="http://www.w3.org/2000/svg" xmlns:xlink="http://www.w3.org/1999/xlink" xml:space="preserve" overflow="hidden"><defs><clipPath id="clip0"><rect x="280" y="0" width="720" height="720"/></clipPath></defs><g clip-path="url(#clip0)" transform="translate(-280 0)"><path d="M639.789 0C546.903 0 458.671 35.404 391.341 99.6934 324.243 163.76 284.78 249.832 280.229 342.048 279.998 346.726 281.696 351.294 284.924 354.688 288.156 358.081 292.635 360.001 297.318 360.001L374.67 360.001C383.695 360.001 391.17 352.99 391.743 343.983 400.077 213.587 509.032 111.446 639.79 111.446 776.843 111.446 888.344 222.948 888.344 360.001 888.344 497.054 776.843 608.556 639.79 608.556 608.807 608.556 578.588 602.932 549.966 591.839L579.677 565.448C584.273 561.42 586.37 555.244 585.181 549.249 583.991 543.25 579.691 538.349 573.903 536.381L380.569 480.687C374.775 478.721 368.384 479.991 363.785 484.02 359.19 488.048 357.09 494.222 358.28 500.217L399.268 689.768C400.459 695.765 404.758 700.67 410.545 702.636 416.333 704.598 422.73 703.334 427.329 699.306L459.15 671.422C513.807 703.201 576.273 720.002 639.79 720.002 838.293 720.002 999.791 558.505 999.791 360.001 999.791 161.495 838.293 0 639.789 0Z" stroke="#FFFFFF" stroke-width="1.71092" fill="#FFFFFF"/><path d="M613.82 407.027 816.564 407.027C821.281 407.027 825.119 403.191 825.119 398.473L825.119 347.145C825.119 342.428 821.281 338.59 816.564 338.59L673.703 338.59 673.703 182.897C673.703 178.18 669.865 174.342 665.148 174.342L613.82 174.342C609.103 174.342 605.266 178.18 605.266 182.897L605.266 398.473C605.266 403.191 609.103 407.027 613.82 407.027Z" stroke="#FFFFFF" stroke-width="1.71092" fill="#FFFFFF"/></g></svg>